%TF.GenerationSoftware,KiCad,Pcbnew,9.0.7*%
%TF.CreationDate,2026-02-28T21:15:57+05:30*%
%TF.ProjectId,IPD AVR (2),49504420-4156-4522-9028-32292e6b6963,rev?*%
%TF.SameCoordinates,Original*%
%TF.FileFunction,Copper,L1,Top*%
%TF.FilePolarity,Positive*%
%FSLAX46Y46*%
G04 Gerber Fmt 4.6, Leading zero omitted, Abs format (unit mm)*
G04 Created by KiCad (PCBNEW 9.0.7) date 2026-02-28 21:15:57*
%MOMM*%
%LPD*%
G01*
G04 APERTURE LIST*
G04 Aperture macros list*
%AMRoundRect*
0 Rectangle with rounded corners*
0 $1 Rounding radius*
0 $2 $3 $4 $5 $6 $7 $8 $9 X,Y pos of 4 corners*
0 Add a 4 corners polygon primitive as box body*
4,1,4,$2,$3,$4,$5,$6,$7,$8,$9,$2,$3,0*
0 Add four circle primitives for the rounded corners*
1,1,$1+$1,$2,$3*
1,1,$1+$1,$4,$5*
1,1,$1+$1,$6,$7*
1,1,$1+$1,$8,$9*
0 Add four rect primitives between the rounded corners*
20,1,$1+$1,$2,$3,$4,$5,0*
20,1,$1+$1,$4,$5,$6,$7,0*
20,1,$1+$1,$6,$7,$8,$9,0*
20,1,$1+$1,$8,$9,$2,$3,0*%
G04 Aperture macros list end*
%TA.AperFunction,ComponentPad*%
%ADD10R,1.905000X2.000000*%
%TD*%
%TA.AperFunction,ComponentPad*%
%ADD11O,1.905000X2.000000*%
%TD*%
%TA.AperFunction,ComponentPad*%
%ADD12R,1.700000X1.700000*%
%TD*%
%TA.AperFunction,ComponentPad*%
%ADD13C,1.700000*%
%TD*%
%TA.AperFunction,ComponentPad*%
%ADD14R,1.800000X1.800000*%
%TD*%
%TA.AperFunction,ComponentPad*%
%ADD15C,1.800000*%
%TD*%
%TA.AperFunction,ComponentPad*%
%ADD16C,1.600000*%
%TD*%
%TA.AperFunction,ComponentPad*%
%ADD17RoundRect,0.250000X-0.550000X-0.550000X0.550000X-0.550000X0.550000X0.550000X-0.550000X0.550000X0*%
%TD*%
%TA.AperFunction,ComponentPad*%
%ADD18C,1.500000*%
%TD*%
%TA.AperFunction,ComponentPad*%
%ADD19RoundRect,0.250001X0.949999X-0.949999X0.949999X0.949999X-0.949999X0.949999X-0.949999X-0.949999X0*%
%TD*%
%TA.AperFunction,ComponentPad*%
%ADD20C,2.400000*%
%TD*%
%TA.AperFunction,ComponentPad*%
%ADD21R,2.000000X2.000000*%
%TD*%
%TA.AperFunction,ComponentPad*%
%ADD22C,2.000000*%
%TD*%
%TA.AperFunction,ComponentPad*%
%ADD23R,3.500000X3.500000*%
%TD*%
%TA.AperFunction,ComponentPad*%
%ADD24RoundRect,0.750000X-0.750000X-1.000000X0.750000X-1.000000X0.750000X1.000000X-0.750000X1.000000X0*%
%TD*%
%TA.AperFunction,ComponentPad*%
%ADD25RoundRect,0.875000X-0.875000X-0.875000X0.875000X-0.875000X0.875000X0.875000X-0.875000X0.875000X0*%
%TD*%
%TA.AperFunction,ViaPad*%
%ADD26C,0.600000*%
%TD*%
%TA.AperFunction,Conductor*%
%ADD27C,0.200000*%
%TD*%
G04 APERTURE END LIST*
D10*
%TO.P,U1,1,IN*%
%TO.N,V_Motor*%
X114880000Y-93450000D03*
D11*
%TO.P,U1,2,GND*%
%TO.N,GND*%
X117420000Y-93450000D03*
%TO.P,U1,3,OUT*%
%TO.N,+5V*%
X119960000Y-93450000D03*
%TD*%
D12*
%TO.P,J2,1,Pin_1*%
%TO.N,Net-(J2-Pin_1)*%
X135960000Y-59480000D03*
D13*
%TO.P,J2,2,Pin_2*%
%TO.N,+5V*%
X138500000Y-59480000D03*
%TO.P,J2,3,Pin_3*%
%TO.N,Net-(J2-Pin_3)*%
X135960000Y-62020000D03*
%TO.P,J2,4,Pin_4*%
%TO.N,Net-(J2-Pin_4)*%
X138500000Y-62020000D03*
%TO.P,J2,5,Pin_5*%
%TO.N,Net-(J2-Pin_5)*%
X135960000Y-64560000D03*
%TO.P,J2,6,Pin_6*%
%TO.N,GND*%
X138500000Y-64560000D03*
%TD*%
D14*
%TO.P,D6,1,K*%
%TO.N,GND*%
X68500000Y-62500000D03*
D15*
%TO.P,D6,2,A*%
%TO.N,Net-(D6-A)*%
X71040000Y-62500000D03*
%TD*%
D16*
%TO.P,R10,1*%
%TO.N,5v*%
X64340000Y-161100000D03*
%TO.P,R10,2*%
%TO.N,reset*%
X71960000Y-161100000D03*
%TD*%
%TO.P,C4,1*%
%TO.N,Net-(U2-XTAL1{slash}PB6)*%
X151770000Y-122100000D03*
%TO.P,C4,2*%
%TO.N,GND*%
X154270000Y-122100000D03*
%TD*%
D14*
%TO.P,D5,1,K*%
%TO.N,GND*%
X110620000Y-60920000D03*
D15*
%TO.P,D5,2,A*%
%TO.N,Net-(D5-A)*%
X113160000Y-60920000D03*
%TD*%
D14*
%TO.P,D8,1,K*%
%TO.N,GND*%
X75980000Y-62500000D03*
D15*
%TO.P,D8,2,A*%
%TO.N,Net-(D8-A)*%
X78520000Y-62500000D03*
%TD*%
D12*
%TO.P,J3,1,Pin_1*%
%TO.N,PD7*%
X84000000Y-143340000D03*
D13*
%TO.P,J3,2,Pin_2*%
%TO.N,PD6*%
X84000000Y-145880000D03*
%TO.P,J3,3,Pin_3*%
%TO.N,PD5*%
X84000000Y-148420000D03*
%TO.P,J3,4,Pin_4*%
%TO.N,PD4*%
X84000000Y-150960000D03*
%TO.P,J3,5,Pin_5*%
%TO.N,PD3*%
X84000000Y-153500000D03*
%TO.P,J3,6,Pin_6*%
%TO.N,PD2*%
X84000000Y-156040000D03*
%TO.P,J3,7,Pin_7*%
%TO.N,PD1*%
X84000000Y-158580000D03*
%TO.P,J3,8,Pin_8*%
%TO.N,PD0*%
X84000000Y-161120000D03*
%TD*%
D16*
%TO.P,R8,1*%
%TO.N,PD1*%
X141000000Y-147750000D03*
%TO.P,R8,2*%
%TO.N,Net-(D3-A)*%
X148620000Y-147750000D03*
%TD*%
D14*
%TO.P,D7,1,K*%
%TO.N,GND*%
X118100000Y-60920000D03*
D15*
%TO.P,D7,2,A*%
%TO.N,Net-(D7-A)*%
X120640000Y-60920000D03*
%TD*%
D17*
%TO.P,C8,1*%
%TO.N,12v*%
X62424700Y-133930000D03*
D16*
%TO.P,C8,2*%
%TO.N,GND*%
X65924700Y-133930000D03*
%TD*%
D18*
%TO.P,Y1,1,1*%
%TO.N,Net-(U2-XTAL2{slash}PB7)*%
X101910000Y-129800000D03*
%TO.P,Y1,2,2*%
%TO.N,Net-(U2-XTAL1{slash}PB6)*%
X106790000Y-129800000D03*
%TD*%
D16*
%TO.P,R1,1*%
%TO.N,Net-(J2-Pin_5)*%
X141000000Y-119400000D03*
%TO.P,R1,2*%
%TO.N,+5V*%
X148620000Y-119400000D03*
%TD*%
D14*
%TO.P,D4,1,K*%
%TO.N,GND*%
X62040000Y-62500000D03*
D15*
%TO.P,D4,2,A*%
%TO.N,Net-(D4-A)*%
X64580000Y-62500000D03*
%TD*%
D12*
%TO.P,J8,1,Pin_1*%
%TO.N,Net-(J8-Pin_1)*%
X56910000Y-131450000D03*
D13*
%TO.P,J8,2,Pin_2*%
%TO.N,Net-(J8-Pin_2)*%
X56910000Y-133990000D03*
%TO.P,J8,3,Pin_3*%
%TO.N,Net-(J8-Pin_3)*%
X56910000Y-136530000D03*
%TO.P,J8,4,Pin_4*%
%TO.N,Net-(J8-Pin_4)*%
X56910000Y-139070000D03*
%TO.P,J8,5,Pin_5*%
%TO.N,Net-(J8-Pin_5)*%
X56910000Y-141610000D03*
%TO.P,J8,6,Pin_6*%
%TO.N,Net-(J8-Pin_6)*%
X56910000Y-144150000D03*
%TD*%
D14*
%TO.P,D1,1,K*%
%TO.N,GND*%
X95660000Y-60920000D03*
D15*
%TO.P,D1,2,A*%
%TO.N,Net-(D1-A)*%
X98200000Y-60920000D03*
%TD*%
D17*
%TO.P,U5,1,EN1\u002C2*%
%TO.N,Net-(J8-Pin_4)*%
X45420000Y-131200000D03*
D16*
%TO.P,U5,2,1A*%
%TO.N,Net-(J8-Pin_6)*%
X45420000Y-133740000D03*
%TO.P,U5,3,1Y*%
%TO.N,Net-(J9-Pin_1)*%
X45420000Y-136280000D03*
%TO.P,U5,4,GND*%
%TO.N,GND*%
X45420000Y-138820000D03*
%TO.P,U5,5,GND*%
X45420000Y-141360000D03*
%TO.P,U5,6,2Y*%
%TO.N,Net-(J9-Pin_2)*%
X45420000Y-143900000D03*
%TO.P,U5,7,2A*%
%TO.N,Net-(J8-Pin_5)*%
X45420000Y-146440000D03*
%TO.P,U5,8,VCC2*%
%TO.N,12v*%
X45420000Y-148980000D03*
%TO.P,U5,9,EN3\u002C4*%
%TO.N,Net-(J8-Pin_1)*%
X53040000Y-148980000D03*
%TO.P,U5,10,3A*%
%TO.N,Net-(J8-Pin_3)*%
X53040000Y-146440000D03*
%TO.P,U5,11,3Y*%
%TO.N,Net-(J10-Pin_1)*%
X53040000Y-143900000D03*
%TO.P,U5,12,GND*%
%TO.N,GND*%
X53040000Y-141360000D03*
%TO.P,U5,13,GND*%
X53040000Y-138820000D03*
%TO.P,U5,14,4Y*%
%TO.N,Net-(J10-Pin_2)*%
X53040000Y-136280000D03*
%TO.P,U5,15,4A*%
%TO.N,Net-(J8-Pin_2)*%
X53040000Y-133740000D03*
%TO.P,U5,16,VCC1*%
%TO.N,12v*%
X53040000Y-131200000D03*
%TD*%
D19*
%TO.P,J4,1,Pin_1*%
%TO.N,Net-(J4-Pin_1)*%
X154000000Y-80000000D03*
D20*
%TO.P,J4,2,Pin_2*%
%TO.N,V_Motor*%
X154000000Y-76500000D03*
%TD*%
D16*
%TO.P,C2,1*%
%TO.N,V_Motor*%
X151770000Y-118950000D03*
%TO.P,C2,2*%
%TO.N,GND*%
X154270000Y-118950000D03*
%TD*%
D17*
%TO.P,C3,1*%
%TO.N,+5V*%
X126289800Y-85410000D03*
D16*
%TO.P,C3,2*%
%TO.N,GND*%
X128289800Y-85410000D03*
%TD*%
D12*
%TO.P,J7,1,Pin_1*%
%TO.N,Net-(J7-Pin_1)*%
X117680000Y-96960000D03*
D13*
%TO.P,J7,2,Pin_2*%
%TO.N,Net-(J7-Pin_2)*%
X117680000Y-99500000D03*
%TO.P,J7,3,Pin_3*%
%TO.N,Net-(J7-Pin_3)*%
X117680000Y-102040000D03*
%TO.P,J7,4,Pin_4*%
%TO.N,Net-(J7-Pin_4)*%
X117680000Y-104580000D03*
%TO.P,J7,5,Pin_5*%
%TO.N,Net-(J7-Pin_5)*%
X117680000Y-107120000D03*
%TO.P,J7,6,Pin_6*%
%TO.N,Net-(J7-Pin_6)*%
X117680000Y-109660000D03*
%TO.P,J7,7,Pin_7*%
%TO.N,Net-(J7-Pin_7)*%
X117680000Y-112200000D03*
%TO.P,J7,8,Pin_8*%
%TO.N,Net-(J7-Pin_8)*%
X117680000Y-114740000D03*
%TD*%
D12*
%TO.P,J10,1,Pin_1*%
%TO.N,Net-(J10-Pin_1)*%
X66090000Y-141000000D03*
D13*
%TO.P,J10,2,Pin_2*%
%TO.N,Net-(J10-Pin_2)*%
X66090000Y-143540000D03*
%TD*%
D16*
%TO.P,C7,1*%
%TO.N,GND*%
X151770000Y-131550000D03*
%TO.P,C7,2*%
%TO.N,Net-(U2-AREF)*%
X154270000Y-131550000D03*
%TD*%
D19*
%TO.P,J5,1,Pin_1*%
%TO.N,Net-(J5-Pin_1)*%
X47790000Y-99120000D03*
D20*
%TO.P,J5,2,Pin_2*%
%TO.N,V_Motor*%
X47790000Y-95620000D03*
%TD*%
D16*
%TO.P,R5,1*%
%TO.N,PD4*%
X141000000Y-135600000D03*
%TO.P,R5,2*%
%TO.N,Net-(D6-A)*%
X148620000Y-135600000D03*
%TD*%
%TO.P,R4,1*%
%TO.N,PD5*%
X141000000Y-131550000D03*
%TO.P,R4,2*%
%TO.N,Net-(D7-A)*%
X148620000Y-131550000D03*
%TD*%
D12*
%TO.P,J6,1,Pin_1*%
%TO.N,Net-(J6-Pin_1)*%
X88590000Y-143340000D03*
D13*
%TO.P,J6,2,Pin_2*%
%TO.N,Net-(J6-Pin_2)*%
X88590000Y-145880000D03*
%TO.P,J6,3,Pin_3*%
%TO.N,Net-(J6-Pin_3)*%
X88590000Y-148420000D03*
%TO.P,J6,4,Pin_4*%
%TO.N,Net-(J6-Pin_4)*%
X88590000Y-150960000D03*
%TO.P,J6,5,Pin_5*%
%TO.N,Net-(J6-Pin_5)*%
X88590000Y-153500000D03*
%TO.P,J6,6,Pin_6*%
%TO.N,Net-(J6-Pin_6)*%
X88590000Y-156040000D03*
%TO.P,J6,7,Pin_7*%
%TO.N,Net-(J6-Pin_7)*%
X88590000Y-158580000D03*
%TO.P,J6,8,Pin_8*%
%TO.N,Net-(J6-Pin_8)*%
X88590000Y-161120000D03*
%TD*%
D16*
%TO.P,C5,1*%
%TO.N,GND*%
X151770000Y-125250000D03*
%TO.P,C5,2*%
%TO.N,Net-(U2-XTAL2{slash}PB7)*%
X154270000Y-125250000D03*
%TD*%
D12*
%TO.P,J9,1,Pin_1*%
%TO.N,Net-(J9-Pin_1)*%
X61500000Y-141000000D03*
D13*
%TO.P,J9,2,Pin_2*%
%TO.N,Net-(J9-Pin_2)*%
X61500000Y-143540000D03*
%TD*%
D16*
%TO.P,R7,1*%
%TO.N,PD2*%
X141000000Y-143700000D03*
%TO.P,R7,2*%
%TO.N,Net-(D4-A)*%
X148620000Y-143700000D03*
%TD*%
D17*
%TO.P,U3,1,I1*%
%TO.N,PC0*%
X77950000Y-92620000D03*
D16*
%TO.P,U3,2,I2*%
%TO.N,PC1*%
X77950000Y-95160000D03*
%TO.P,U3,3,I3*%
%TO.N,PC2*%
X77950000Y-97700000D03*
%TO.P,U3,4,I4*%
%TO.N,PC3*%
X77950000Y-100240000D03*
%TO.P,U3,5,I5*%
%TO.N,PC4*%
X77950000Y-102780000D03*
%TO.P,U3,6,I6*%
%TO.N,PC5*%
X77950000Y-105320000D03*
%TO.P,U3,7,I7*%
%TO.N,PB0*%
X77950000Y-107860000D03*
%TO.P,U3,8,I8*%
%TO.N,PB1*%
X77950000Y-110400000D03*
%TO.P,U3,9,GND*%
%TO.N,GND*%
X77950000Y-112940000D03*
%TO.P,U3,10,COM*%
%TO.N,V_Motor*%
X85570000Y-112940000D03*
%TO.P,U3,11,O8*%
%TO.N,unconnected-(U3-O8-Pad11)*%
X85570000Y-110400000D03*
%TO.P,U3,12,O7*%
%TO.N,unconnected-(U3-O7-Pad12)*%
X85570000Y-107860000D03*
%TO.P,U3,13,O6*%
%TO.N,unconnected-(U3-O6-Pad13)*%
X85570000Y-105320000D03*
%TO.P,U3,14,O5*%
%TO.N,unconnected-(U3-O5-Pad14)*%
X85570000Y-102780000D03*
%TO.P,U3,15,O4*%
%TO.N,unconnected-(U3-O4-Pad15)*%
X85570000Y-100240000D03*
%TO.P,U3,16,O3*%
%TO.N,Net-(BZ1--)*%
X85570000Y-97700000D03*
%TO.P,U3,17,O2*%
%TO.N,Net-(J5-Pin_1)*%
X85570000Y-95160000D03*
%TO.P,U3,18,O1*%
%TO.N,Net-(J4-Pin_1)*%
X85570000Y-92620000D03*
%TD*%
D21*
%TO.P,BZ1,1,+*%
%TO.N,V_Motor*%
X100850000Y-119670000D03*
D22*
%TO.P,BZ1,2,-*%
%TO.N,Net-(BZ1--)*%
X108450000Y-119670000D03*
%TD*%
D16*
%TO.P,R6,1*%
%TO.N,PD3*%
X141000000Y-139650000D03*
%TO.P,R6,2*%
%TO.N,Net-(D5-A)*%
X148620000Y-139650000D03*
%TD*%
D17*
%TO.P,U4,1,I1*%
%TO.N,Net-(J6-Pin_8)*%
X58500000Y-88860000D03*
D16*
%TO.P,U4,2,I2*%
%TO.N,Net-(J6-Pin_7)*%
X58500000Y-91400000D03*
%TO.P,U4,3,I3*%
%TO.N,Net-(J6-Pin_6)*%
X58500000Y-93940000D03*
%TO.P,U4,4,I4*%
%TO.N,Net-(J6-Pin_5)*%
X58500000Y-96480000D03*
%TO.P,U4,5,I5*%
%TO.N,Net-(J6-Pin_4)*%
X58500000Y-99020000D03*
%TO.P,U4,6,I6*%
%TO.N,Net-(J6-Pin_3)*%
X58500000Y-101560000D03*
%TO.P,U4,7,I7*%
%TO.N,Net-(J6-Pin_2)*%
X58500000Y-104100000D03*
%TO.P,U4,8,I8*%
%TO.N,Net-(J6-Pin_1)*%
X58500000Y-106640000D03*
%TO.P,U4,9,GND*%
%TO.N,GND*%
X58500000Y-109180000D03*
%TO.P,U4,10,COM*%
%TO.N,12v*%
X66120000Y-109180000D03*
%TO.P,U4,11,O8*%
%TO.N,Net-(J7-Pin_8)*%
X66120000Y-106640000D03*
%TO.P,U4,12,O7*%
%TO.N,Net-(J7-Pin_7)*%
X66120000Y-104100000D03*
%TO.P,U4,13,O6*%
%TO.N,Net-(J7-Pin_6)*%
X66120000Y-101560000D03*
%TO.P,U4,14,O5*%
%TO.N,Net-(J7-Pin_5)*%
X66120000Y-99020000D03*
%TO.P,U4,15,O4*%
%TO.N,Net-(J7-Pin_4)*%
X66120000Y-96480000D03*
%TO.P,U4,16,O3*%
%TO.N,Net-(J7-Pin_3)*%
X66120000Y-93940000D03*
%TO.P,U4,17,O2*%
%TO.N,Net-(J7-Pin_2)*%
X66120000Y-91400000D03*
%TO.P,U4,18,O1*%
%TO.N,Net-(J7-Pin_1)*%
X66120000Y-88860000D03*
%TD*%
D17*
%TO.P,U2,1,~{RESET}/PC6*%
%TO.N,Net-(J2-Pin_5)*%
X114420000Y-125380000D03*
D16*
%TO.P,U2,2,PD0*%
%TO.N,PD0*%
X114420000Y-127920000D03*
%TO.P,U2,3,PD1*%
%TO.N,PD1*%
X114420000Y-130460000D03*
%TO.P,U2,4,PD2*%
%TO.N,PD2*%
X114420000Y-133000000D03*
%TO.P,U2,5,PD3*%
%TO.N,PD3*%
X114420000Y-135540000D03*
%TO.P,U2,6,PD4*%
%TO.N,PD4*%
X114420000Y-138080000D03*
%TO.P,U2,7,VCC*%
%TO.N,+5V*%
X114420000Y-140620000D03*
%TO.P,U2,8,GND*%
%TO.N,GND*%
X114420000Y-143160000D03*
%TO.P,U2,9,XTAL1/PB6*%
%TO.N,Net-(U2-XTAL1{slash}PB6)*%
X114420000Y-145700000D03*
%TO.P,U2,10,XTAL2/PB7*%
%TO.N,Net-(U2-XTAL2{slash}PB7)*%
X114420000Y-148240000D03*
%TO.P,U2,11,PD5*%
%TO.N,PD5*%
X114420000Y-150780000D03*
%TO.P,U2,12,PD6*%
%TO.N,PD6*%
X114420000Y-153320000D03*
%TO.P,U2,13,PD7*%
%TO.N,PD7*%
X114420000Y-155860000D03*
%TO.P,U2,14,PB0*%
%TO.N,PB0*%
X114420000Y-158400000D03*
%TO.P,U2,15,PB1*%
%TO.N,PB1*%
X122040000Y-158400000D03*
%TO.P,U2,16,PB2*%
%TO.N,unconnected-(U2-PB2-Pad16)*%
X122040000Y-155860000D03*
%TO.P,U2,17,PB3*%
%TO.N,Net-(J2-Pin_4)*%
X122040000Y-153320000D03*
%TO.P,U2,18,PB4*%
%TO.N,Net-(J2-Pin_1)*%
X122040000Y-150780000D03*
%TO.P,U2,19,PB5*%
%TO.N,Net-(J2-Pin_3)*%
X122040000Y-148240000D03*
%TO.P,U2,20,AVCC*%
%TO.N,+5V*%
X122040000Y-145700000D03*
%TO.P,U2,21,AREF*%
%TO.N,Net-(U2-AREF)*%
X122040000Y-143160000D03*
%TO.P,U2,22,GND*%
%TO.N,GND*%
X122040000Y-140620000D03*
%TO.P,U2,23,PC0*%
%TO.N,PC0*%
X122040000Y-138080000D03*
%TO.P,U2,24,PC1*%
%TO.N,PC1*%
X122040000Y-135540000D03*
%TO.P,U2,25,PC2*%
%TO.N,PC2*%
X122040000Y-133000000D03*
%TO.P,U2,26,PC3*%
%TO.N,PC3*%
X122040000Y-130460000D03*
%TO.P,U2,27,PC4*%
%TO.N,PC4*%
X122040000Y-127920000D03*
%TO.P,U2,28,PC5*%
%TO.N,PC5*%
X122040000Y-125380000D03*
%TD*%
D23*
%TO.P,J1,1*%
%TO.N,V_Motor*%
X156500000Y-163000000D03*
D24*
%TO.P,J1,2*%
%TO.N,GND*%
X150500000Y-163000000D03*
D25*
%TO.P,J1,3*%
%TO.N,N/C*%
X153500000Y-167700000D03*
%TD*%
D22*
%TO.P,SW2,1,1*%
%TO.N,GND*%
X45860000Y-153050000D03*
X52360000Y-153050000D03*
%TO.P,SW2,2,2*%
%TO.N,reset*%
X45860000Y-157550000D03*
X52360000Y-157550000D03*
%TD*%
D14*
%TO.P,D3,1,K*%
%TO.N,GND*%
X103140000Y-60920000D03*
D15*
%TO.P,D3,2,A*%
%TO.N,Net-(D3-A)*%
X105680000Y-60920000D03*
%TD*%
D16*
%TO.P,R2,1*%
%TO.N,PD7*%
X141000000Y-123450000D03*
%TO.P,R2,2*%
%TO.N,Net-(D1-A)*%
X148620000Y-123450000D03*
%TD*%
D17*
%TO.P,C1,1*%
%TO.N,V_Motor*%
X143169800Y-60460000D03*
D16*
%TO.P,C1,2*%
%TO.N,GND*%
X145169800Y-60460000D03*
%TD*%
%TO.P,C6,1*%
%TO.N,+5V*%
X151770000Y-128400000D03*
%TO.P,C6,2*%
%TO.N,GND*%
X154270000Y-128400000D03*
%TD*%
D23*
%TO.P,J11,1*%
%TO.N,12v*%
X55640000Y-81885000D03*
D24*
%TO.P,J11,2*%
%TO.N,GND*%
X49640000Y-81885000D03*
D25*
%TO.P,J11,3*%
%TO.N,N/C*%
X52640000Y-86585000D03*
%TD*%
D16*
%TO.P,R9,1*%
%TO.N,PD0*%
X141000000Y-151800000D03*
%TO.P,R9,2*%
%TO.N,Net-(D2-A)*%
X148620000Y-151800000D03*
%TD*%
%TO.P,R3,1*%
%TO.N,PD6*%
X141000000Y-127500000D03*
%TO.P,R3,2*%
%TO.N,Net-(D8-A)*%
X148620000Y-127500000D03*
%TD*%
D14*
%TO.P,D2,1,K*%
%TO.N,GND*%
X54560000Y-62500000D03*
D15*
%TO.P,D2,2,A*%
%TO.N,Net-(D2-A)*%
X57100000Y-62500000D03*
%TD*%
D16*
%TO.P,C9,1*%
%TO.N,reset*%
X56190000Y-161100000D03*
%TO.P,C9,2*%
%TO.N,GND*%
X61190000Y-161100000D03*
%TD*%
D22*
%TO.P,SW1,1,1*%
%TO.N,Net-(J2-Pin_5)*%
X125140000Y-59210000D03*
X131640000Y-59210000D03*
%TO.P,SW1,2,2*%
%TO.N,GND*%
X125140000Y-63710000D03*
X131640000Y-63710000D03*
%TD*%
D26*
%TO.N,Net-(J10-Pin_2)*%
X63495800Y-138708800D03*
%TO.N,Net-(J8-Pin_5)*%
X57096100Y-146474900D03*
%TO.N,PC2*%
X81312600Y-108791100D03*
X122231300Y-115544600D03*
%TO.N,PC3*%
X81907600Y-109854100D03*
X121202200Y-115578700D03*
%TO.N,PC0*%
X74133400Y-131003000D03*
%TO.N,PC1*%
X121024500Y-107566300D03*
%TO.N,PB1*%
X90546800Y-150845600D03*
X120393800Y-150947600D03*
%TO.N,PB0*%
X86331300Y-157218500D03*
%TO.N,PC4*%
X77721100Y-128088900D03*
%TO.N,PC5*%
X121804000Y-116361700D03*
X86908700Y-112989200D03*
%TO.N,Net-(J7-Pin_8)*%
X119364200Y-118284800D03*
X68828400Y-114762600D03*
%TO.N,Net-(J6-Pin_1)*%
X85707900Y-114452900D03*
%TO.N,Net-(J6-Pin_6)*%
X59456700Y-151543300D03*
%TO.N,Net-(J6-Pin_7)*%
X89018800Y-92663200D03*
%TO.N,Net-(J6-Pin_5)*%
X64574600Y-149934400D03*
X87541400Y-154945200D03*
%TO.N,Net-(J6-Pin_4)*%
X60533500Y-145679700D03*
%TO.N,Net-(J6-Pin_3)*%
X60184800Y-130591400D03*
%TO.N,Net-(J6-Pin_2)*%
X84571900Y-114529500D03*
X59069500Y-113429900D03*
%TO.N,Net-(J6-Pin_8)*%
X59780300Y-156752700D03*
%TO.N,Net-(J4-Pin_1)*%
X88774700Y-88634800D03*
%TO.N,PD6*%
X86399700Y-145775800D03*
X89984900Y-151512500D03*
X142177200Y-147065400D03*
%TO.N,PD4*%
X84596300Y-139186700D03*
%TO.N,PD7*%
X109233500Y-144491700D03*
X113462600Y-144446200D03*
X116052600Y-125285700D03*
%TO.N,PD1*%
X117364400Y-147060000D03*
X86413500Y-142613400D03*
%TO.N,PD5*%
X135683500Y-147728500D03*
%TO.N,PD2*%
X136764500Y-136183500D03*
X82025800Y-136309100D03*
%TO.N,PD3*%
X112191600Y-155312100D03*
%TO.N,PD0*%
X118092700Y-162289400D03*
%TO.N,Net-(D8-A)*%
X146148000Y-76199400D03*
%TO.N,Net-(D7-A)*%
X126886500Y-131020700D03*
%TO.N,Net-(D6-A)*%
X74115700Y-133952500D03*
%TO.N,Net-(D5-A)*%
X144478900Y-69452900D03*
%TO.N,Net-(D4-A)*%
X144294900Y-74533500D03*
%TO.N,Net-(D3-A)*%
X119046400Y-142008900D03*
%TO.N,Net-(D2-A)*%
X74115700Y-151073700D03*
%TO.N,Net-(D1-A)*%
X103433700Y-122225300D03*
%TO.N,Net-(U2-AREF)*%
X124270900Y-141420100D03*
%TO.N,Net-(U2-XTAL1{slash}PB6)*%
X109874300Y-118468400D03*
%TO.N,+5V*%
X120000000Y-118821000D03*
%TO.N,GND*%
X59851400Y-131796200D03*
X150500000Y-142747900D03*
X55925100Y-107566300D03*
%TO.N,Net-(BZ1--)*%
X106365500Y-98112500D03*
%TO.N,V_Motor*%
X118181300Y-117087000D03*
%TD*%
D27*
%TO.N,Net-(D6-A)*%
X74115700Y-131604000D02*
X74115700Y-133952500D01*
X73884457Y-131604000D02*
X74115700Y-131604000D01*
X73532400Y-131251943D02*
X73884457Y-131604000D01*
X73532400Y-130754057D02*
X73532400Y-131251943D01*
X73860900Y-130401100D02*
X73873129Y-130413329D01*
X76027000Y-131697000D02*
X74731100Y-130401100D01*
X74731100Y-130401100D02*
X73860900Y-130401100D01*
X124024400Y-131697000D02*
X76027000Y-131697000D01*
X73873129Y-130413329D02*
X73532400Y-130754057D01*
X146593600Y-133573600D02*
X125901000Y-133573600D01*
X148620000Y-135600000D02*
X146593600Y-133573600D01*
X125901000Y-133573600D02*
X124024400Y-131697000D01*
%TO.N,+5V*%
X121214200Y-93450000D02*
X121214200Y-94450000D01*
X119960000Y-93450000D02*
X121214200Y-93450000D01*
%TO.N,Net-(J10-Pin_2)*%
X54953100Y-136280000D02*
X53040000Y-136280000D01*
X56473200Y-137800100D02*
X54953100Y-136280000D01*
X62587100Y-137800100D02*
X56473200Y-137800100D01*
X63495800Y-138708800D02*
X62587100Y-137800100D01*
%TO.N,Net-(J10-Pin_1)*%
X66090000Y-141000000D02*
X64938300Y-141000000D01*
X63786600Y-142151700D02*
X64938300Y-141000000D01*
X60916300Y-142151700D02*
X63786600Y-142151700D01*
X57765500Y-145302500D02*
X60916300Y-142151700D01*
X56160000Y-145302500D02*
X57765500Y-145302500D01*
X54757500Y-143900000D02*
X56160000Y-145302500D01*
X53040000Y-143900000D02*
X54757500Y-143900000D01*
%TO.N,Net-(J9-Pin_2)*%
X59335800Y-145704200D02*
X61500000Y-143540000D01*
X55793500Y-145704200D02*
X59335800Y-145704200D01*
X55393300Y-145304000D02*
X55793500Y-145704200D01*
X46824000Y-145304000D02*
X55393300Y-145304000D01*
X45420000Y-143900000D02*
X46824000Y-145304000D01*
%TO.N,Net-(J9-Pin_1)*%
X61500000Y-141000000D02*
X60348300Y-141000000D01*
X49228500Y-140088500D02*
X45420000Y-136280000D01*
X53742600Y-140088500D02*
X49228500Y-140088500D01*
X53994100Y-140340000D02*
X53742600Y-140088500D01*
X59688300Y-140340000D02*
X53994100Y-140340000D01*
X60348300Y-141000000D02*
X59688300Y-140340000D01*
%TO.N,Net-(J8-Pin_6)*%
X55390000Y-142630000D02*
X56910000Y-144150000D01*
X51195200Y-142630000D02*
X55390000Y-142630000D01*
X45973600Y-137408400D02*
X51195200Y-142630000D01*
X44952700Y-137408400D02*
X45973600Y-137408400D01*
X44293900Y-136749600D02*
X44952700Y-137408400D01*
X44293900Y-134866100D02*
X44293900Y-136749600D01*
X45420000Y-133740000D02*
X44293900Y-134866100D01*
%TO.N,Net-(J8-Pin_5)*%
X46535600Y-147555600D02*
X45420000Y-146440000D01*
X56015400Y-147555600D02*
X46535600Y-147555600D01*
X57096100Y-146474900D02*
X56015400Y-147555600D01*
%TO.N,Net-(J8-Pin_2)*%
X53290000Y-133990000D02*
X53040000Y-133740000D01*
X56910000Y-133990000D02*
X53290000Y-133990000D01*
%TO.N,Net-(J8-Pin_4)*%
X55249900Y-137409900D02*
X56910000Y-139070000D01*
X51629900Y-137409900D02*
X55249900Y-137409900D01*
X45420000Y-131200000D02*
X51629900Y-137409900D01*
%TO.N,reset*%
X45860000Y-157550000D02*
X52360000Y-157550000D01*
X55910000Y-161100000D02*
X52360000Y-157550000D01*
X56190000Y-161100000D02*
X55910000Y-161100000D01*
X57359100Y-159930900D02*
X56190000Y-161100000D01*
X70790900Y-159930900D02*
X57359100Y-159930900D01*
X71960000Y-161100000D02*
X70790900Y-159930900D01*
%TO.N,12v*%
X60091600Y-133930000D02*
X62424700Y-133930000D01*
X58881600Y-132720000D02*
X60091600Y-133930000D01*
X54560000Y-132720000D02*
X58881600Y-132720000D01*
X53040000Y-131200000D02*
X54560000Y-132720000D01*
%TO.N,PC2*%
X120156700Y-113470000D02*
X122231300Y-115544600D01*
X116123000Y-113470000D02*
X120156700Y-113470000D01*
X111783000Y-109130000D02*
X116123000Y-113470000D01*
X81651500Y-109130000D02*
X111783000Y-109130000D01*
X81312600Y-108791100D02*
X81651500Y-109130000D01*
%TO.N,PC3*%
X120820900Y-115960000D02*
X121202200Y-115578700D01*
X116569700Y-115960000D02*
X120820900Y-115960000D01*
X112138100Y-111528400D02*
X116569700Y-115960000D01*
X84724400Y-111528400D02*
X112138100Y-111528400D01*
X83050100Y-109854100D02*
X84724400Y-111528400D01*
X81907600Y-109854100D02*
X83050100Y-109854100D01*
X121202200Y-115578700D02*
X121202200Y-115721700D01*
X121202200Y-115721700D02*
X121202200Y-115578700D01*
%TO.N,PC0*%
X120903500Y-136943500D02*
X122040000Y-138080000D01*
X80073900Y-136943500D02*
X120903500Y-136943500D01*
X74133400Y-131003000D02*
X80073900Y-136943500D01*
%TO.N,PC1*%
X120884000Y-107425800D02*
X120884000Y-106501000D01*
X121024500Y-107566300D02*
X120884000Y-107425800D01*
X120542000Y-106159000D02*
X120884000Y-106501000D01*
X78000000Y-95110000D02*
X77950000Y-95160000D01*
X78115000Y-95110000D02*
X78000000Y-95110000D01*
X77900000Y-95110000D02*
X78115000Y-95110000D01*
X78330000Y-95110000D02*
X78620000Y-95400000D01*
X78115000Y-95110000D02*
X78330000Y-95110000D01*
X79700000Y-96480000D02*
X78620000Y-95400000D01*
X105499200Y-96480000D02*
X79700000Y-96480000D01*
X106413900Y-97394700D02*
X105499200Y-96480000D01*
X110588200Y-97394700D02*
X106413900Y-97394700D01*
X116620300Y-103426800D02*
X110588200Y-97394700D01*
X118155600Y-103426800D02*
X116620300Y-103426800D01*
X120542000Y-105813200D02*
X118155600Y-103426800D01*
X120542000Y-106159000D02*
X120542000Y-105813200D01*
%TO.N,PB1*%
X77950000Y-110400000D02*
X77900000Y-110350000D01*
X77950000Y-110400000D02*
X78120000Y-110400000D01*
X115817200Y-150947600D02*
X120393800Y-150947600D01*
X114857700Y-151907100D02*
X115817200Y-150947600D01*
X91608300Y-151907100D02*
X114857700Y-151907100D01*
X90546800Y-150845600D02*
X91608300Y-151907100D01*
%TO.N,PB0*%
X113238500Y-157218500D02*
X114420000Y-158400000D01*
X86331300Y-157218500D02*
X113238500Y-157218500D01*
%TO.N,PC4*%
X80530800Y-130898600D02*
X77721100Y-128088900D01*
X108788300Y-130898600D02*
X80530800Y-130898600D01*
X110496900Y-129190000D02*
X108788300Y-130898600D01*
X120770000Y-129190000D02*
X110496900Y-129190000D01*
X122040000Y-127920000D02*
X120770000Y-129190000D01*
%TO.N,PC5*%
X90281200Y-116361700D02*
X121804000Y-116361700D01*
X86908700Y-112989200D02*
X90281200Y-116361700D01*
X121804000Y-116361700D02*
X121802400Y-116361700D01*
X121802400Y-116361700D02*
X121804000Y-116361700D01*
%TO.N,Net-(J7-Pin_5)*%
X68460000Y-101360000D02*
X66120000Y-99020000D01*
X111920000Y-101360000D02*
X68460000Y-101360000D01*
X117680000Y-107120000D02*
X111920000Y-101360000D01*
%TO.N,Net-(J7-Pin_8)*%
X75070900Y-121005100D02*
X68828400Y-114762600D01*
X109234400Y-121005100D02*
X75070900Y-121005100D01*
X111170900Y-119068600D02*
X109234400Y-121005100D01*
X118580400Y-119068600D02*
X111170900Y-119068600D01*
X119364200Y-118284800D02*
X118580400Y-119068600D01*
%TO.N,Net-(J7-Pin_7)*%
X111920000Y-106440000D02*
X117680000Y-112200000D01*
X68460000Y-106440000D02*
X111920000Y-106440000D01*
X66120000Y-104100000D02*
X68460000Y-106440000D01*
%TO.N,Net-(J7-Pin_2)*%
X66873200Y-90646800D02*
X66120000Y-91400000D01*
X100166100Y-90646800D02*
X66873200Y-90646800D01*
X104885300Y-95366000D02*
X100166100Y-90646800D01*
X106021300Y-95366000D02*
X104885300Y-95366000D01*
X107246600Y-96591300D02*
X106021300Y-95366000D01*
X114771300Y-96591300D02*
X107246600Y-96591300D01*
X117680000Y-99500000D02*
X114771300Y-96591300D01*
%TO.N,Net-(J7-Pin_1)*%
X117680000Y-96960000D02*
X116528300Y-96960000D01*
X66496500Y-89236500D02*
X66120000Y-88860000D01*
X100459800Y-89236500D02*
X66496500Y-89236500D01*
X107412900Y-96189600D02*
X100459800Y-89236500D01*
X115757900Y-96189600D02*
X107412900Y-96189600D01*
X116528300Y-96960000D02*
X115757900Y-96189600D01*
%TO.N,Net-(J7-Pin_3)*%
X112633000Y-96993000D02*
X117680000Y-102040000D01*
X107080300Y-96993000D02*
X112633000Y-96993000D01*
X105855000Y-95767700D02*
X107080300Y-96993000D01*
X90512200Y-95767700D02*
X105855000Y-95767700D01*
X86226000Y-91481500D02*
X90512200Y-95767700D01*
X68578500Y-91481500D02*
X86226000Y-91481500D01*
X66120000Y-93940000D02*
X68578500Y-91481500D01*
%TO.N,Net-(J7-Pin_6)*%
X111920000Y-103900000D02*
X117680000Y-109660000D01*
X68460000Y-103900000D02*
X111920000Y-103900000D01*
X66120000Y-101560000D02*
X68460000Y-103900000D01*
%TO.N,Net-(J7-Pin_4)*%
X116922700Y-104580000D02*
X117680000Y-104580000D01*
X111162700Y-98820000D02*
X116922700Y-104580000D01*
X68460000Y-98820000D02*
X111162700Y-98820000D01*
X66120000Y-96480000D02*
X68460000Y-98820000D01*
%TO.N,Net-(J6-Pin_1)*%
X63530000Y-111670000D02*
X58500000Y-106640000D01*
X82563300Y-111670000D02*
X63530000Y-111670000D01*
X85346200Y-114452900D02*
X82563300Y-111670000D01*
X85707900Y-114452900D02*
X85346200Y-114452900D01*
%TO.N,Net-(J6-Pin_6)*%
X65142900Y-157229500D02*
X59456700Y-151543300D01*
X85348600Y-157229500D02*
X65142900Y-157229500D01*
X86538100Y-156040000D02*
X85348600Y-157229500D01*
X88590000Y-156040000D02*
X86538100Y-156040000D01*
%TO.N,Net-(J6-Pin_7)*%
X87404100Y-91048500D02*
X89018800Y-92663200D01*
X68030100Y-91048500D02*
X87404100Y-91048500D01*
X66560500Y-92518100D02*
X68030100Y-91048500D01*
X59618100Y-92518100D02*
X66560500Y-92518100D01*
X58500000Y-91400000D02*
X59618100Y-92518100D01*
%TO.N,Net-(J6-Pin_5)*%
X69505200Y-154865000D02*
X64574600Y-149934400D01*
X87461200Y-154865000D02*
X69505200Y-154865000D01*
X87541400Y-154945200D02*
X87461200Y-154865000D01*
%TO.N,Net-(J6-Pin_4)*%
X61170800Y-145679700D02*
X60533500Y-145679700D01*
X65181100Y-149690000D02*
X61170800Y-145679700D01*
X85829800Y-149690000D02*
X65181100Y-149690000D01*
X87099800Y-150960000D02*
X85829800Y-149690000D01*
X88590000Y-150960000D02*
X87099800Y-150960000D01*
%TO.N,Net-(J6-Pin_3)*%
X59249600Y-131526600D02*
X60184800Y-130591400D01*
X59249600Y-132088900D02*
X59249600Y-131526600D01*
X59988000Y-132827300D02*
X59249600Y-132088900D01*
X63215500Y-132827300D02*
X59988000Y-132827300D01*
X77538200Y-147150000D02*
X63215500Y-132827300D01*
X87320000Y-147150000D02*
X77538200Y-147150000D01*
X88590000Y-148420000D02*
X87320000Y-147150000D01*
%TO.N,Net-(J6-Pin_2)*%
X59800500Y-114160900D02*
X59069500Y-113429900D01*
X84203300Y-114160900D02*
X59800500Y-114160900D01*
X84571900Y-114529500D02*
X84203300Y-114160900D01*
%TO.N,Net-(J6-Pin_8)*%
X61749300Y-158721700D02*
X59780300Y-156752700D01*
X79199400Y-158721700D02*
X61749300Y-158721700D01*
X80327700Y-159850000D02*
X79199400Y-158721700D01*
X87320000Y-159850000D02*
X80327700Y-159850000D01*
X88590000Y-161120000D02*
X87320000Y-159850000D01*
%TO.N,Net-(J5-Pin_1)*%
X84439300Y-94029300D02*
X85570000Y-95160000D01*
X74022000Y-94029300D02*
X84439300Y-94029300D01*
X72841300Y-95210000D02*
X74022000Y-94029300D01*
X51700000Y-95210000D02*
X72841300Y-95210000D01*
X47790000Y-99120000D02*
X51700000Y-95210000D01*
%TO.N,Net-(J4-Pin_1)*%
X97409500Y-80000000D02*
X154000000Y-80000000D01*
X88774700Y-88634800D02*
X97409500Y-80000000D01*
%TO.N,PD6*%
X86295500Y-145880000D02*
X86399700Y-145775800D01*
X84000000Y-145880000D02*
X86295500Y-145880000D01*
X91792400Y-153320000D02*
X89984900Y-151512500D01*
X114420000Y-153320000D02*
X91792400Y-153320000D01*
X86399700Y-145775800D02*
X86399700Y-145923200D01*
X86399700Y-145923200D02*
X86399700Y-145775800D01*
X142177200Y-148184800D02*
X142177200Y-147065400D01*
X138455100Y-151906900D02*
X142177200Y-148184800D01*
X115833100Y-151906900D02*
X138455100Y-151906900D01*
X114420000Y-153320000D02*
X115833100Y-151906900D01*
X89984900Y-151512500D02*
X89945100Y-151512500D01*
X89945100Y-151512500D02*
X89984900Y-151512500D01*
%TO.N,PD4*%
X85703000Y-138080000D02*
X114420000Y-138080000D01*
X84596300Y-139186700D02*
X85703000Y-138080000D01*
X119570700Y-138080000D02*
X114420000Y-138080000D01*
X120719300Y-139228600D02*
X119570700Y-138080000D01*
X137371400Y-139228600D02*
X120719300Y-139228600D01*
X141000000Y-135600000D02*
X137371400Y-139228600D01*
%TO.N,PD7*%
X117888300Y-123450000D02*
X141000000Y-123450000D01*
X116052600Y-125285700D02*
X117888300Y-123450000D01*
X84000000Y-143340000D02*
X85151700Y-143340000D01*
X113417100Y-144491700D02*
X113462600Y-144446200D01*
X109233500Y-144491700D02*
X113417100Y-144491700D01*
X85151700Y-142980100D02*
X85151700Y-143340000D01*
X86146100Y-141985700D02*
X85151700Y-142980100D01*
X106727500Y-141985700D02*
X86146100Y-141985700D01*
X109233500Y-144491700D02*
X106727500Y-141985700D01*
%TO.N,PD1*%
X140310000Y-147060000D02*
X117364400Y-147060000D01*
X141000000Y-147750000D02*
X140310000Y-147060000D01*
X93249300Y-144491700D02*
X87615000Y-144491700D01*
X95817600Y-147060000D02*
X93249300Y-144491700D01*
X117364400Y-147060000D02*
X95817600Y-147060000D01*
%TO.N,PD5*%
X85328000Y-148420000D02*
X84000000Y-148420000D01*
X86538100Y-149630100D02*
X85328000Y-148420000D01*
X113270100Y-149630100D02*
X86538100Y-149630100D01*
X114420000Y-150780000D02*
X113270100Y-149630100D01*
X115690000Y-149510000D02*
X114420000Y-150780000D01*
X133902000Y-149510000D02*
X115690000Y-149510000D01*
X135683500Y-147728500D02*
X133902000Y-149510000D01*
%TO.N,PD2*%
X115690000Y-134270000D02*
X114420000Y-133000000D01*
X134851000Y-134270000D02*
X115690000Y-134270000D01*
X136764500Y-136183500D02*
X134851000Y-134270000D01*
X85334900Y-133000000D02*
X114420000Y-133000000D01*
X82025800Y-136309100D02*
X85334900Y-133000000D01*
X136764500Y-136183500D02*
X136763300Y-136182300D01*
X136763300Y-136182300D02*
X136764500Y-136183500D01*
%TO.N,PD3*%
X142110400Y-138539600D02*
X141000000Y-139650000D01*
X142110400Y-135098800D02*
X142110400Y-138539600D01*
X141492300Y-134480700D02*
X142110400Y-135098800D01*
X140319300Y-134480700D02*
X141492300Y-134480700D01*
X137998700Y-136801300D02*
X140319300Y-134480700D01*
X121743300Y-136801300D02*
X137998700Y-136801300D01*
X120482000Y-135540000D02*
X121743300Y-136801300D01*
X114420000Y-135540000D02*
X120482000Y-135540000D01*
X86947100Y-153500000D02*
X84000000Y-153500000D01*
X88098800Y-154651700D02*
X86947100Y-153500000D01*
X88850800Y-154651700D02*
X88098800Y-154651700D01*
X89511200Y-155312100D02*
X88850800Y-154651700D01*
X112191600Y-155312100D02*
X89511200Y-155312100D01*
%TO.N,PD0*%
X130510600Y-162289400D02*
X141000000Y-151800000D01*
X118092700Y-162289400D02*
X130510600Y-162289400D01*
X85169400Y-162289400D02*
X118092700Y-162289400D01*
X84000000Y-161120000D02*
X85169400Y-162289400D01*
%TO.N,Net-(J2-Pin_5)*%
X125140000Y-59210000D02*
X131640000Y-59210000D01*
X131640000Y-60240000D02*
X135960000Y-64560000D01*
X131640000Y-59210000D02*
X131640000Y-60240000D01*
X119713800Y-120086200D02*
X114420000Y-125380000D01*
X140313800Y-120086200D02*
X119713800Y-120086200D01*
X141000000Y-119400000D02*
X140313800Y-120086200D01*
%TO.N,Net-(D8-A)*%
X146148000Y-75513400D02*
X146148000Y-76199400D01*
X143901100Y-73266500D02*
X146148000Y-75513400D01*
X89286500Y-73266500D02*
X143901100Y-73266500D01*
X78520000Y-62500000D02*
X89286500Y-73266500D01*
%TO.N,Net-(D7-A)*%
X147518100Y-130448100D02*
X148620000Y-131550000D01*
X127459100Y-130448100D02*
X147518100Y-130448100D01*
X126886500Y-131020700D02*
X127459100Y-130448100D01*
%TO.N,Net-(D5-A)*%
X121692900Y-69452900D02*
X144478900Y-69452900D01*
X113160000Y-60920000D02*
X121692900Y-69452900D01*
%TO.N,Net-(D4-A)*%
X65789400Y-61290600D02*
X64580000Y-62500000D01*
X76997400Y-61290600D02*
X65789400Y-61290600D01*
X77250000Y-61543200D02*
X76997400Y-61290600D01*
X77250000Y-62945000D02*
X77250000Y-61543200D01*
X88838500Y-74533500D02*
X77250000Y-62945000D01*
X144294900Y-74533500D02*
X88838500Y-74533500D01*
%TO.N,Net-(D3-A)*%
X146595000Y-145725000D02*
X148620000Y-147750000D01*
X126163100Y-145725000D02*
X146595000Y-145725000D01*
X122447000Y-142008900D02*
X126163100Y-145725000D01*
X119046400Y-142008900D02*
X122447000Y-142008900D01*
%TO.N,Net-(D2-A)*%
X75212000Y-152170000D02*
X74115700Y-151073700D01*
X89278300Y-152170000D02*
X75212000Y-152170000D01*
X91531400Y-154423100D02*
X89278300Y-152170000D01*
X136664000Y-154423100D02*
X91531400Y-154423100D01*
X140389400Y-150697700D02*
X136664000Y-154423100D01*
X147517700Y-150697700D02*
X140389400Y-150697700D01*
X148620000Y-151800000D02*
X147517700Y-150697700D01*
%TO.N,Net-(D1-A)*%
X143462100Y-118292100D02*
X148620000Y-123450000D01*
X140250000Y-118292100D02*
X143462100Y-118292100D01*
X138857600Y-119684500D02*
X140250000Y-118292100D01*
X114901000Y-119684500D02*
X138857600Y-119684500D01*
X112360200Y-122225300D02*
X114901000Y-119684500D01*
X103433700Y-122225300D02*
X112360200Y-122225300D01*
%TO.N,Net-(U2-AREF)*%
X144399900Y-141420100D02*
X154270000Y-131550000D01*
X124270900Y-141420100D02*
X144399900Y-141420100D01*
%TO.N,Net-(U2-XTAL2{slash}PB7)*%
X153110500Y-126409500D02*
X154270000Y-125250000D01*
X151335400Y-126409500D02*
X153110500Y-126409500D01*
X151276100Y-126350200D02*
X151335400Y-126409500D01*
X139692600Y-126350200D02*
X151276100Y-126350200D01*
X139442800Y-126600000D02*
X139692600Y-126350200D01*
X105110000Y-126600000D02*
X139442800Y-126600000D01*
X101910000Y-129800000D02*
X105110000Y-126600000D01*
%TO.N,Net-(U2-XTAL1{slash}PB6)*%
X118329800Y-118468400D02*
X109874300Y-118468400D01*
X119309500Y-117488700D02*
X118329800Y-118468400D01*
X148298400Y-117488700D02*
X119309500Y-117488700D01*
X151770000Y-120960300D02*
X148298400Y-117488700D01*
X151770000Y-122100000D02*
X151770000Y-120960300D01*
%TO.N,+5V*%
X126289800Y-89374400D02*
X121214200Y-94450000D01*
X126289800Y-85410000D02*
X126289800Y-89374400D01*
X120930600Y-117890400D02*
X120000000Y-118821000D01*
X147110400Y-117890400D02*
X120930600Y-117890400D01*
X148620000Y-119400000D02*
X147110400Y-117890400D01*
X119500000Y-145700000D02*
X122040000Y-145700000D01*
X114420000Y-140620000D02*
X119500000Y-145700000D01*
%TO.N,GND*%
X52360000Y-153050000D02*
X45860000Y-153050000D01*
X118100000Y-60920000D02*
X119301700Y-60920000D01*
X68500000Y-62500000D02*
X69701700Y-62500000D01*
X75980000Y-62500000D02*
X74778300Y-62500000D01*
X54560000Y-62500000D02*
X55761700Y-62500000D01*
X62040000Y-62500000D02*
X60838300Y-62500000D01*
X141069800Y-64560000D02*
X138500000Y-64560000D01*
X145169800Y-60460000D02*
X141069800Y-64560000D01*
X110620000Y-60920000D02*
X109418300Y-60920000D01*
X63241700Y-62875600D02*
X63241700Y-62500000D01*
X64067800Y-63701700D02*
X63241700Y-62875600D01*
X66096600Y-63701700D02*
X64067800Y-63701700D01*
X67298300Y-62500000D02*
X66096600Y-63701700D01*
X68500000Y-62500000D02*
X67298300Y-62500000D01*
X62040000Y-62500000D02*
X63241700Y-62500000D01*
X95660000Y-60920000D02*
X96861700Y-60920000D01*
X111821700Y-60544400D02*
X111821700Y-60920000D01*
X112647800Y-59718300D02*
X111821700Y-60544400D01*
X115696600Y-59718300D02*
X112647800Y-59718300D01*
X116898300Y-60920000D02*
X115696600Y-59718300D01*
X118100000Y-60920000D02*
X116898300Y-60920000D01*
X110620000Y-60920000D02*
X111821700Y-60920000D01*
X125140000Y-63710000D02*
X131640000Y-63710000D01*
X149773900Y-142021800D02*
X150500000Y-142747900D01*
X123441800Y-142021800D02*
X149773900Y-142021800D01*
X122040000Y-140620000D02*
X123441800Y-142021800D01*
X113281300Y-142021300D02*
X113281300Y-139788400D01*
X114420000Y-143160000D02*
X113281300Y-142021300D01*
X96861700Y-60558900D02*
X96861700Y-60920000D01*
X97702300Y-59718300D02*
X96861700Y-60558900D01*
X100736600Y-59718300D02*
X97702300Y-59718300D01*
X101938300Y-60920000D02*
X100736600Y-59718300D01*
X103140000Y-60920000D02*
X101938300Y-60920000D01*
X103140000Y-60920000D02*
X104341700Y-60920000D01*
X59636600Y-61298300D02*
X60838300Y-62500000D01*
X56587900Y-61298300D02*
X59636600Y-61298300D01*
X55761700Y-62124500D02*
X56587900Y-61298300D01*
X55761700Y-62500000D02*
X55761700Y-62124500D01*
X95660000Y-60920000D02*
X94458300Y-60920000D01*
X56886300Y-107566300D02*
X58500000Y-109180000D01*
X55925100Y-107566300D02*
X56886300Y-107566300D01*
X133659300Y-65729300D02*
X131640000Y-63710000D01*
X137330700Y-65729300D02*
X133659300Y-65729300D01*
X138500000Y-64560000D02*
X137330700Y-65729300D01*
X119301700Y-61295500D02*
X119301700Y-60920000D01*
X121716200Y-63710000D02*
X119301700Y-61295500D01*
X125140000Y-63710000D02*
X121716200Y-63710000D01*
X73576600Y-63701700D02*
X74778300Y-62500000D01*
X70542300Y-63701700D02*
X73576600Y-63701700D01*
X69701700Y-62861100D02*
X70542300Y-63701700D01*
X69701700Y-62500000D02*
X69701700Y-62861100D01*
X62478400Y-60859900D02*
X60838300Y-62500000D01*
X94398200Y-60859900D02*
X62478400Y-60859900D01*
X94458300Y-60920000D02*
X94398200Y-60859900D01*
X62260000Y-112940000D02*
X58500000Y-109180000D01*
X77950000Y-112940000D02*
X62260000Y-112940000D01*
X104341800Y-60920000D02*
X104341700Y-60920000D01*
X104341800Y-60558800D02*
X104341800Y-60920000D01*
X105182300Y-59718300D02*
X104341800Y-60558800D01*
X106177800Y-59718300D02*
X105182300Y-59718300D01*
X107379400Y-60919900D02*
X106177800Y-59718300D01*
X107379400Y-60920000D02*
X107379400Y-60919900D01*
X109418300Y-60920000D02*
X107379400Y-60920000D01*
X71783100Y-139788400D02*
X65924700Y-133930000D01*
X113281300Y-139788400D02*
X71783100Y-139788400D01*
X63790900Y-131796200D02*
X59851400Y-131796200D01*
X65924700Y-133930000D02*
X63790900Y-131796200D01*
X121519300Y-140620000D02*
X122040000Y-140620000D01*
X120406800Y-139507500D02*
X121519300Y-140620000D01*
X113562200Y-139507500D02*
X120406800Y-139507500D01*
X113281300Y-139788400D02*
X113562200Y-139507500D01*
%TO.N,Net-(BZ1--)*%
X105953000Y-97700000D02*
X106365500Y-98112500D01*
X85570000Y-97700000D02*
X105953000Y-97700000D01*
%TO.N,V_Motor*%
X100850000Y-119670000D02*
X102151700Y-119670000D01*
X85334600Y-112940000D02*
X85570000Y-112940000D01*
X83514800Y-111120200D02*
X85334600Y-112940000D01*
X82148800Y-111120200D02*
X83514800Y-111120200D01*
X80307200Y-109278600D02*
X82148800Y-111120200D01*
X75772000Y-109278600D02*
X80307200Y-109278600D01*
X74260200Y-107766800D02*
X75772000Y-109278600D01*
X64993700Y-107766800D02*
X74260200Y-107766800D01*
X62709200Y-105482300D02*
X64993700Y-107766800D01*
X51468000Y-105482300D02*
X62709200Y-105482300D01*
X46241100Y-100255400D02*
X51468000Y-105482300D01*
X46241100Y-97168900D02*
X46241100Y-100255400D01*
X47790000Y-95620000D02*
X46241100Y-97168900D01*
X104734700Y-117087000D02*
X102151700Y-119670000D01*
X118181300Y-117087000D02*
X104734700Y-117087000D01*
X92300000Y-119670000D02*
X85570000Y-112940000D01*
X100850000Y-119670000D02*
X92300000Y-119670000D01*
X149907000Y-117087000D02*
X118181300Y-117087000D01*
X151770000Y-118950000D02*
X149907000Y-117087000D01*
X118181300Y-117087000D02*
X118181300Y-116973900D01*
X118181300Y-116973900D02*
X118181300Y-117087000D01*
%TO.N,PD1*%
X87615000Y-144491700D02*
X86413500Y-143290200D01*
X86413500Y-143290200D02*
X86413500Y-142613400D01*
X86413500Y-142613400D02*
X86413500Y-143290200D01*
X86413500Y-143290200D02*
X86413500Y-142613400D01*
%TD*%
M02*
