%TF.GenerationSoftware,KiCad,Pcbnew,9.0.7*%
%TF.CreationDate,2026-02-28T21:15:57+05:30*%
%TF.ProjectId,IPD AVR (2),49504420-4156-4522-9028-32292e6b6963,rev?*%
%TF.SameCoordinates,Original*%
%TF.FileFunction,Copper,L2,Bot*%
%TF.FilePolarity,Positive*%
%FSLAX46Y46*%
G04 Gerber Fmt 4.6, Leading zero omitted, Abs format (unit mm)*
G04 Created by KiCad (PCBNEW 9.0.7) date 2026-02-28 21:15:57*
%MOMM*%
%LPD*%
G01*
G04 APERTURE LIST*
G04 Aperture macros list*
%AMRoundRect*
0 Rectangle with rounded corners*
0 $1 Rounding radius*
0 $2 $3 $4 $5 $6 $7 $8 $9 X,Y pos of 4 corners*
0 Add a 4 corners polygon primitive as box body*
4,1,4,$2,$3,$4,$5,$6,$7,$8,$9,$2,$3,0*
0 Add four circle primitives for the rounded corners*
1,1,$1+$1,$2,$3*
1,1,$1+$1,$4,$5*
1,1,$1+$1,$6,$7*
1,1,$1+$1,$8,$9*
0 Add four rect primitives between the rounded corners*
20,1,$1+$1,$2,$3,$4,$5,0*
20,1,$1+$1,$4,$5,$6,$7,0*
20,1,$1+$1,$6,$7,$8,$9,0*
20,1,$1+$1,$8,$9,$2,$3,0*%
G04 Aperture macros list end*
%TA.AperFunction,ComponentPad*%
%ADD10R,1.905000X2.000000*%
%TD*%
%TA.AperFunction,ComponentPad*%
%ADD11O,1.905000X2.000000*%
%TD*%
%TA.AperFunction,ComponentPad*%
%ADD12R,1.700000X1.700000*%
%TD*%
%TA.AperFunction,ComponentPad*%
%ADD13C,1.700000*%
%TD*%
%TA.AperFunction,ComponentPad*%
%ADD14R,1.800000X1.800000*%
%TD*%
%TA.AperFunction,ComponentPad*%
%ADD15C,1.800000*%
%TD*%
%TA.AperFunction,ComponentPad*%
%ADD16C,1.600000*%
%TD*%
%TA.AperFunction,ComponentPad*%
%ADD17RoundRect,0.250000X-0.550000X-0.550000X0.550000X-0.550000X0.550000X0.550000X-0.550000X0.550000X0*%
%TD*%
%TA.AperFunction,ComponentPad*%
%ADD18C,1.500000*%
%TD*%
%TA.AperFunction,ComponentPad*%
%ADD19RoundRect,0.250001X0.949999X-0.949999X0.949999X0.949999X-0.949999X0.949999X-0.949999X-0.949999X0*%
%TD*%
%TA.AperFunction,ComponentPad*%
%ADD20C,2.400000*%
%TD*%
%TA.AperFunction,ComponentPad*%
%ADD21R,2.000000X2.000000*%
%TD*%
%TA.AperFunction,ComponentPad*%
%ADD22C,2.000000*%
%TD*%
%TA.AperFunction,ComponentPad*%
%ADD23R,3.500000X3.500000*%
%TD*%
%TA.AperFunction,ComponentPad*%
%ADD24RoundRect,0.750000X-0.750000X-1.000000X0.750000X-1.000000X0.750000X1.000000X-0.750000X1.000000X0*%
%TD*%
%TA.AperFunction,ComponentPad*%
%ADD25RoundRect,0.875000X-0.875000X-0.875000X0.875000X-0.875000X0.875000X0.875000X-0.875000X0.875000X0*%
%TD*%
%TA.AperFunction,ViaPad*%
%ADD26C,0.600000*%
%TD*%
%TA.AperFunction,Conductor*%
%ADD27C,0.200000*%
%TD*%
G04 APERTURE END LIST*
D10*
%TO.P,U1,1,IN*%
%TO.N,V_Motor*%
X114880000Y-93450000D03*
D11*
%TO.P,U1,2,GND*%
%TO.N,GND*%
X117420000Y-93450000D03*
%TO.P,U1,3,OUT*%
%TO.N,+5V*%
X119960000Y-93450000D03*
%TD*%
D12*
%TO.P,J2,1,Pin_1*%
%TO.N,Net-(J2-Pin_1)*%
X135960000Y-59480000D03*
D13*
%TO.P,J2,2,Pin_2*%
%TO.N,+5V*%
X138500000Y-59480000D03*
%TO.P,J2,3,Pin_3*%
%TO.N,Net-(J2-Pin_3)*%
X135960000Y-62020000D03*
%TO.P,J2,4,Pin_4*%
%TO.N,Net-(J2-Pin_4)*%
X138500000Y-62020000D03*
%TO.P,J2,5,Pin_5*%
%TO.N,Net-(J2-Pin_5)*%
X135960000Y-64560000D03*
%TO.P,J2,6,Pin_6*%
%TO.N,GND*%
X138500000Y-64560000D03*
%TD*%
D14*
%TO.P,D6,1,K*%
%TO.N,GND*%
X68500000Y-62500000D03*
D15*
%TO.P,D6,2,A*%
%TO.N,Net-(D6-A)*%
X71040000Y-62500000D03*
%TD*%
D16*
%TO.P,R10,1*%
%TO.N,5v*%
X64340000Y-161100000D03*
%TO.P,R10,2*%
%TO.N,reset*%
X71960000Y-161100000D03*
%TD*%
%TO.P,C4,1*%
%TO.N,Net-(U2-XTAL1{slash}PB6)*%
X151770000Y-122100000D03*
%TO.P,C4,2*%
%TO.N,GND*%
X154270000Y-122100000D03*
%TD*%
D14*
%TO.P,D5,1,K*%
%TO.N,GND*%
X110620000Y-60920000D03*
D15*
%TO.P,D5,2,A*%
%TO.N,Net-(D5-A)*%
X113160000Y-60920000D03*
%TD*%
D14*
%TO.P,D8,1,K*%
%TO.N,GND*%
X75980000Y-62500000D03*
D15*
%TO.P,D8,2,A*%
%TO.N,Net-(D8-A)*%
X78520000Y-62500000D03*
%TD*%
D12*
%TO.P,J3,1,Pin_1*%
%TO.N,PD7*%
X84000000Y-143340000D03*
D13*
%TO.P,J3,2,Pin_2*%
%TO.N,PD6*%
X84000000Y-145880000D03*
%TO.P,J3,3,Pin_3*%
%TO.N,PD5*%
X84000000Y-148420000D03*
%TO.P,J3,4,Pin_4*%
%TO.N,PD4*%
X84000000Y-150960000D03*
%TO.P,J3,5,Pin_5*%
%TO.N,PD3*%
X84000000Y-153500000D03*
%TO.P,J3,6,Pin_6*%
%TO.N,PD2*%
X84000000Y-156040000D03*
%TO.P,J3,7,Pin_7*%
%TO.N,PD1*%
X84000000Y-158580000D03*
%TO.P,J3,8,Pin_8*%
%TO.N,PD0*%
X84000000Y-161120000D03*
%TD*%
D16*
%TO.P,R8,1*%
%TO.N,PD1*%
X141000000Y-147750000D03*
%TO.P,R8,2*%
%TO.N,Net-(D3-A)*%
X148620000Y-147750000D03*
%TD*%
D14*
%TO.P,D7,1,K*%
%TO.N,GND*%
X118100000Y-60920000D03*
D15*
%TO.P,D7,2,A*%
%TO.N,Net-(D7-A)*%
X120640000Y-60920000D03*
%TD*%
D17*
%TO.P,C8,1*%
%TO.N,12v*%
X62424700Y-133930000D03*
D16*
%TO.P,C8,2*%
%TO.N,GND*%
X65924700Y-133930000D03*
%TD*%
D18*
%TO.P,Y1,1,1*%
%TO.N,Net-(U2-XTAL2{slash}PB7)*%
X101910000Y-129800000D03*
%TO.P,Y1,2,2*%
%TO.N,Net-(U2-XTAL1{slash}PB6)*%
X106790000Y-129800000D03*
%TD*%
D16*
%TO.P,R1,1*%
%TO.N,Net-(J2-Pin_5)*%
X141000000Y-119400000D03*
%TO.P,R1,2*%
%TO.N,+5V*%
X148620000Y-119400000D03*
%TD*%
D14*
%TO.P,D4,1,K*%
%TO.N,GND*%
X62040000Y-62500000D03*
D15*
%TO.P,D4,2,A*%
%TO.N,Net-(D4-A)*%
X64580000Y-62500000D03*
%TD*%
D12*
%TO.P,J8,1,Pin_1*%
%TO.N,Net-(J8-Pin_1)*%
X56910000Y-131450000D03*
D13*
%TO.P,J8,2,Pin_2*%
%TO.N,Net-(J8-Pin_2)*%
X56910000Y-133990000D03*
%TO.P,J8,3,Pin_3*%
%TO.N,Net-(J8-Pin_3)*%
X56910000Y-136530000D03*
%TO.P,J8,4,Pin_4*%
%TO.N,Net-(J8-Pin_4)*%
X56910000Y-139070000D03*
%TO.P,J8,5,Pin_5*%
%TO.N,Net-(J8-Pin_5)*%
X56910000Y-141610000D03*
%TO.P,J8,6,Pin_6*%
%TO.N,Net-(J8-Pin_6)*%
X56910000Y-144150000D03*
%TD*%
D14*
%TO.P,D1,1,K*%
%TO.N,GND*%
X95660000Y-60920000D03*
D15*
%TO.P,D1,2,A*%
%TO.N,Net-(D1-A)*%
X98200000Y-60920000D03*
%TD*%
D17*
%TO.P,U5,1,EN1\u002C2*%
%TO.N,Net-(J8-Pin_4)*%
X45420000Y-131200000D03*
D16*
%TO.P,U5,2,1A*%
%TO.N,Net-(J8-Pin_6)*%
X45420000Y-133740000D03*
%TO.P,U5,3,1Y*%
%TO.N,Net-(J9-Pin_1)*%
X45420000Y-136280000D03*
%TO.P,U5,4,GND*%
%TO.N,GND*%
X45420000Y-138820000D03*
%TO.P,U5,5,GND*%
X45420000Y-141360000D03*
%TO.P,U5,6,2Y*%
%TO.N,Net-(J9-Pin_2)*%
X45420000Y-143900000D03*
%TO.P,U5,7,2A*%
%TO.N,Net-(J8-Pin_5)*%
X45420000Y-146440000D03*
%TO.P,U5,8,VCC2*%
%TO.N,12v*%
X45420000Y-148980000D03*
%TO.P,U5,9,EN3\u002C4*%
%TO.N,Net-(J8-Pin_1)*%
X53040000Y-148980000D03*
%TO.P,U5,10,3A*%
%TO.N,Net-(J8-Pin_3)*%
X53040000Y-146440000D03*
%TO.P,U5,11,3Y*%
%TO.N,Net-(J10-Pin_1)*%
X53040000Y-143900000D03*
%TO.P,U5,12,GND*%
%TO.N,GND*%
X53040000Y-141360000D03*
%TO.P,U5,13,GND*%
X53040000Y-138820000D03*
%TO.P,U5,14,4Y*%
%TO.N,Net-(J10-Pin_2)*%
X53040000Y-136280000D03*
%TO.P,U5,15,4A*%
%TO.N,Net-(J8-Pin_2)*%
X53040000Y-133740000D03*
%TO.P,U5,16,VCC1*%
%TO.N,12v*%
X53040000Y-131200000D03*
%TD*%
D19*
%TO.P,J4,1,Pin_1*%
%TO.N,Net-(J4-Pin_1)*%
X154000000Y-80000000D03*
D20*
%TO.P,J4,2,Pin_2*%
%TO.N,V_Motor*%
X154000000Y-76500000D03*
%TD*%
D16*
%TO.P,C2,1*%
%TO.N,V_Motor*%
X151770000Y-118950000D03*
%TO.P,C2,2*%
%TO.N,GND*%
X154270000Y-118950000D03*
%TD*%
D17*
%TO.P,C3,1*%
%TO.N,+5V*%
X126289800Y-85410000D03*
D16*
%TO.P,C3,2*%
%TO.N,GND*%
X128289800Y-85410000D03*
%TD*%
D12*
%TO.P,J7,1,Pin_1*%
%TO.N,Net-(J7-Pin_1)*%
X117680000Y-96960000D03*
D13*
%TO.P,J7,2,Pin_2*%
%TO.N,Net-(J7-Pin_2)*%
X117680000Y-99500000D03*
%TO.P,J7,3,Pin_3*%
%TO.N,Net-(J7-Pin_3)*%
X117680000Y-102040000D03*
%TO.P,J7,4,Pin_4*%
%TO.N,Net-(J7-Pin_4)*%
X117680000Y-104580000D03*
%TO.P,J7,5,Pin_5*%
%TO.N,Net-(J7-Pin_5)*%
X117680000Y-107120000D03*
%TO.P,J7,6,Pin_6*%
%TO.N,Net-(J7-Pin_6)*%
X117680000Y-109660000D03*
%TO.P,J7,7,Pin_7*%
%TO.N,Net-(J7-Pin_7)*%
X117680000Y-112200000D03*
%TO.P,J7,8,Pin_8*%
%TO.N,Net-(J7-Pin_8)*%
X117680000Y-114740000D03*
%TD*%
D12*
%TO.P,J10,1,Pin_1*%
%TO.N,Net-(J10-Pin_1)*%
X66090000Y-141000000D03*
D13*
%TO.P,J10,2,Pin_2*%
%TO.N,Net-(J10-Pin_2)*%
X66090000Y-143540000D03*
%TD*%
D16*
%TO.P,C7,1*%
%TO.N,GND*%
X151770000Y-131550000D03*
%TO.P,C7,2*%
%TO.N,Net-(U2-AREF)*%
X154270000Y-131550000D03*
%TD*%
D19*
%TO.P,J5,1,Pin_1*%
%TO.N,Net-(J5-Pin_1)*%
X47790000Y-99120000D03*
D20*
%TO.P,J5,2,Pin_2*%
%TO.N,V_Motor*%
X47790000Y-95620000D03*
%TD*%
D16*
%TO.P,R5,1*%
%TO.N,PD4*%
X141000000Y-135600000D03*
%TO.P,R5,2*%
%TO.N,Net-(D6-A)*%
X148620000Y-135600000D03*
%TD*%
%TO.P,R4,1*%
%TO.N,PD5*%
X141000000Y-131550000D03*
%TO.P,R4,2*%
%TO.N,Net-(D7-A)*%
X148620000Y-131550000D03*
%TD*%
D12*
%TO.P,J6,1,Pin_1*%
%TO.N,Net-(J6-Pin_1)*%
X88590000Y-143340000D03*
D13*
%TO.P,J6,2,Pin_2*%
%TO.N,Net-(J6-Pin_2)*%
X88590000Y-145880000D03*
%TO.P,J6,3,Pin_3*%
%TO.N,Net-(J6-Pin_3)*%
X88590000Y-148420000D03*
%TO.P,J6,4,Pin_4*%
%TO.N,Net-(J6-Pin_4)*%
X88590000Y-150960000D03*
%TO.P,J6,5,Pin_5*%
%TO.N,Net-(J6-Pin_5)*%
X88590000Y-153500000D03*
%TO.P,J6,6,Pin_6*%
%TO.N,Net-(J6-Pin_6)*%
X88590000Y-156040000D03*
%TO.P,J6,7,Pin_7*%
%TO.N,Net-(J6-Pin_7)*%
X88590000Y-158580000D03*
%TO.P,J6,8,Pin_8*%
%TO.N,Net-(J6-Pin_8)*%
X88590000Y-161120000D03*
%TD*%
D16*
%TO.P,C5,1*%
%TO.N,GND*%
X151770000Y-125250000D03*
%TO.P,C5,2*%
%TO.N,Net-(U2-XTAL2{slash}PB7)*%
X154270000Y-125250000D03*
%TD*%
D12*
%TO.P,J9,1,Pin_1*%
%TO.N,Net-(J9-Pin_1)*%
X61500000Y-141000000D03*
D13*
%TO.P,J9,2,Pin_2*%
%TO.N,Net-(J9-Pin_2)*%
X61500000Y-143540000D03*
%TD*%
D16*
%TO.P,R7,1*%
%TO.N,PD2*%
X141000000Y-143700000D03*
%TO.P,R7,2*%
%TO.N,Net-(D4-A)*%
X148620000Y-143700000D03*
%TD*%
D17*
%TO.P,U3,1,I1*%
%TO.N,PC0*%
X77950000Y-92620000D03*
D16*
%TO.P,U3,2,I2*%
%TO.N,PC1*%
X77950000Y-95160000D03*
%TO.P,U3,3,I3*%
%TO.N,PC2*%
X77950000Y-97700000D03*
%TO.P,U3,4,I4*%
%TO.N,PC3*%
X77950000Y-100240000D03*
%TO.P,U3,5,I5*%
%TO.N,PC4*%
X77950000Y-102780000D03*
%TO.P,U3,6,I6*%
%TO.N,PC5*%
X77950000Y-105320000D03*
%TO.P,U3,7,I7*%
%TO.N,PB0*%
X77950000Y-107860000D03*
%TO.P,U3,8,I8*%
%TO.N,PB1*%
X77950000Y-110400000D03*
%TO.P,U3,9,GND*%
%TO.N,GND*%
X77950000Y-112940000D03*
%TO.P,U3,10,COM*%
%TO.N,V_Motor*%
X85570000Y-112940000D03*
%TO.P,U3,11,O8*%
%TO.N,unconnected-(U3-O8-Pad11)*%
X85570000Y-110400000D03*
%TO.P,U3,12,O7*%
%TO.N,unconnected-(U3-O7-Pad12)*%
X85570000Y-107860000D03*
%TO.P,U3,13,O6*%
%TO.N,unconnected-(U3-O6-Pad13)*%
X85570000Y-105320000D03*
%TO.P,U3,14,O5*%
%TO.N,unconnected-(U3-O5-Pad14)*%
X85570000Y-102780000D03*
%TO.P,U3,15,O4*%
%TO.N,unconnected-(U3-O4-Pad15)*%
X85570000Y-100240000D03*
%TO.P,U3,16,O3*%
%TO.N,Net-(BZ1--)*%
X85570000Y-97700000D03*
%TO.P,U3,17,O2*%
%TO.N,Net-(J5-Pin_1)*%
X85570000Y-95160000D03*
%TO.P,U3,18,O1*%
%TO.N,Net-(J4-Pin_1)*%
X85570000Y-92620000D03*
%TD*%
D21*
%TO.P,BZ1,1,+*%
%TO.N,V_Motor*%
X100850000Y-119670000D03*
D22*
%TO.P,BZ1,2,-*%
%TO.N,Net-(BZ1--)*%
X108450000Y-119670000D03*
%TD*%
D16*
%TO.P,R6,1*%
%TO.N,PD3*%
X141000000Y-139650000D03*
%TO.P,R6,2*%
%TO.N,Net-(D5-A)*%
X148620000Y-139650000D03*
%TD*%
D17*
%TO.P,U4,1,I1*%
%TO.N,Net-(J6-Pin_8)*%
X58500000Y-88860000D03*
D16*
%TO.P,U4,2,I2*%
%TO.N,Net-(J6-Pin_7)*%
X58500000Y-91400000D03*
%TO.P,U4,3,I3*%
%TO.N,Net-(J6-Pin_6)*%
X58500000Y-93940000D03*
%TO.P,U4,4,I4*%
%TO.N,Net-(J6-Pin_5)*%
X58500000Y-96480000D03*
%TO.P,U4,5,I5*%
%TO.N,Net-(J6-Pin_4)*%
X58500000Y-99020000D03*
%TO.P,U4,6,I6*%
%TO.N,Net-(J6-Pin_3)*%
X58500000Y-101560000D03*
%TO.P,U4,7,I7*%
%TO.N,Net-(J6-Pin_2)*%
X58500000Y-104100000D03*
%TO.P,U4,8,I8*%
%TO.N,Net-(J6-Pin_1)*%
X58500000Y-106640000D03*
%TO.P,U4,9,GND*%
%TO.N,GND*%
X58500000Y-109180000D03*
%TO.P,U4,10,COM*%
%TO.N,12v*%
X66120000Y-109180000D03*
%TO.P,U4,11,O8*%
%TO.N,Net-(J7-Pin_8)*%
X66120000Y-106640000D03*
%TO.P,U4,12,O7*%
%TO.N,Net-(J7-Pin_7)*%
X66120000Y-104100000D03*
%TO.P,U4,13,O6*%
%TO.N,Net-(J7-Pin_6)*%
X66120000Y-101560000D03*
%TO.P,U4,14,O5*%
%TO.N,Net-(J7-Pin_5)*%
X66120000Y-99020000D03*
%TO.P,U4,15,O4*%
%TO.N,Net-(J7-Pin_4)*%
X66120000Y-96480000D03*
%TO.P,U4,16,O3*%
%TO.N,Net-(J7-Pin_3)*%
X66120000Y-93940000D03*
%TO.P,U4,17,O2*%
%TO.N,Net-(J7-Pin_2)*%
X66120000Y-91400000D03*
%TO.P,U4,18,O1*%
%TO.N,Net-(J7-Pin_1)*%
X66120000Y-88860000D03*
%TD*%
D17*
%TO.P,U2,1,~{RESET}/PC6*%
%TO.N,Net-(J2-Pin_5)*%
X114420000Y-125380000D03*
D16*
%TO.P,U2,2,PD0*%
%TO.N,PD0*%
X114420000Y-127920000D03*
%TO.P,U2,3,PD1*%
%TO.N,PD1*%
X114420000Y-130460000D03*
%TO.P,U2,4,PD2*%
%TO.N,PD2*%
X114420000Y-133000000D03*
%TO.P,U2,5,PD3*%
%TO.N,PD3*%
X114420000Y-135540000D03*
%TO.P,U2,6,PD4*%
%TO.N,PD4*%
X114420000Y-138080000D03*
%TO.P,U2,7,VCC*%
%TO.N,+5V*%
X114420000Y-140620000D03*
%TO.P,U2,8,GND*%
%TO.N,GND*%
X114420000Y-143160000D03*
%TO.P,U2,9,XTAL1/PB6*%
%TO.N,Net-(U2-XTAL1{slash}PB6)*%
X114420000Y-145700000D03*
%TO.P,U2,10,XTAL2/PB7*%
%TO.N,Net-(U2-XTAL2{slash}PB7)*%
X114420000Y-148240000D03*
%TO.P,U2,11,PD5*%
%TO.N,PD5*%
X114420000Y-150780000D03*
%TO.P,U2,12,PD6*%
%TO.N,PD6*%
X114420000Y-153320000D03*
%TO.P,U2,13,PD7*%
%TO.N,PD7*%
X114420000Y-155860000D03*
%TO.P,U2,14,PB0*%
%TO.N,PB0*%
X114420000Y-158400000D03*
%TO.P,U2,15,PB1*%
%TO.N,PB1*%
X122040000Y-158400000D03*
%TO.P,U2,16,PB2*%
%TO.N,unconnected-(U2-PB2-Pad16)*%
X122040000Y-155860000D03*
%TO.P,U2,17,PB3*%
%TO.N,Net-(J2-Pin_4)*%
X122040000Y-153320000D03*
%TO.P,U2,18,PB4*%
%TO.N,Net-(J2-Pin_1)*%
X122040000Y-150780000D03*
%TO.P,U2,19,PB5*%
%TO.N,Net-(J2-Pin_3)*%
X122040000Y-148240000D03*
%TO.P,U2,20,AVCC*%
%TO.N,+5V*%
X122040000Y-145700000D03*
%TO.P,U2,21,AREF*%
%TO.N,Net-(U2-AREF)*%
X122040000Y-143160000D03*
%TO.P,U2,22,GND*%
%TO.N,GND*%
X122040000Y-140620000D03*
%TO.P,U2,23,PC0*%
%TO.N,PC0*%
X122040000Y-138080000D03*
%TO.P,U2,24,PC1*%
%TO.N,PC1*%
X122040000Y-135540000D03*
%TO.P,U2,25,PC2*%
%TO.N,PC2*%
X122040000Y-133000000D03*
%TO.P,U2,26,PC3*%
%TO.N,PC3*%
X122040000Y-130460000D03*
%TO.P,U2,27,PC4*%
%TO.N,PC4*%
X122040000Y-127920000D03*
%TO.P,U2,28,PC5*%
%TO.N,PC5*%
X122040000Y-125380000D03*
%TD*%
D23*
%TO.P,J1,1*%
%TO.N,V_Motor*%
X156500000Y-163000000D03*
D24*
%TO.P,J1,2*%
%TO.N,GND*%
X150500000Y-163000000D03*
D25*
%TO.P,J1,3*%
%TO.N,N/C*%
X153500000Y-167700000D03*
%TD*%
D22*
%TO.P,SW2,1,1*%
%TO.N,GND*%
X45860000Y-153050000D03*
X52360000Y-153050000D03*
%TO.P,SW2,2,2*%
%TO.N,reset*%
X45860000Y-157550000D03*
X52360000Y-157550000D03*
%TD*%
D14*
%TO.P,D3,1,K*%
%TO.N,GND*%
X103140000Y-60920000D03*
D15*
%TO.P,D3,2,A*%
%TO.N,Net-(D3-A)*%
X105680000Y-60920000D03*
%TD*%
D16*
%TO.P,R2,1*%
%TO.N,PD7*%
X141000000Y-123450000D03*
%TO.P,R2,2*%
%TO.N,Net-(D1-A)*%
X148620000Y-123450000D03*
%TD*%
D17*
%TO.P,C1,1*%
%TO.N,V_Motor*%
X143169800Y-60460000D03*
D16*
%TO.P,C1,2*%
%TO.N,GND*%
X145169800Y-60460000D03*
%TD*%
%TO.P,C6,1*%
%TO.N,+5V*%
X151770000Y-128400000D03*
%TO.P,C6,2*%
%TO.N,GND*%
X154270000Y-128400000D03*
%TD*%
D23*
%TO.P,J11,1*%
%TO.N,12v*%
X55640000Y-81885000D03*
D24*
%TO.P,J11,2*%
%TO.N,GND*%
X49640000Y-81885000D03*
D25*
%TO.P,J11,3*%
%TO.N,N/C*%
X52640000Y-86585000D03*
%TD*%
D16*
%TO.P,R9,1*%
%TO.N,PD0*%
X141000000Y-151800000D03*
%TO.P,R9,2*%
%TO.N,Net-(D2-A)*%
X148620000Y-151800000D03*
%TD*%
%TO.P,R3,1*%
%TO.N,PD6*%
X141000000Y-127500000D03*
%TO.P,R3,2*%
%TO.N,Net-(D8-A)*%
X148620000Y-127500000D03*
%TD*%
D14*
%TO.P,D2,1,K*%
%TO.N,GND*%
X54560000Y-62500000D03*
D15*
%TO.P,D2,2,A*%
%TO.N,Net-(D2-A)*%
X57100000Y-62500000D03*
%TD*%
D16*
%TO.P,C9,1*%
%TO.N,reset*%
X56190000Y-161100000D03*
%TO.P,C9,2*%
%TO.N,GND*%
X61190000Y-161100000D03*
%TD*%
D22*
%TO.P,SW1,1,1*%
%TO.N,Net-(J2-Pin_5)*%
X125140000Y-59210000D03*
X131640000Y-59210000D03*
%TO.P,SW1,2,2*%
%TO.N,GND*%
X125140000Y-63710000D03*
X131640000Y-63710000D03*
%TD*%
D26*
%TO.N,Net-(J10-Pin_2)*%
X63495800Y-138708800D03*
%TO.N,Net-(J8-Pin_5)*%
X57096100Y-146474900D03*
%TO.N,PC2*%
X81312600Y-108791100D03*
X122231300Y-115544600D03*
%TO.N,PC3*%
X81907600Y-109854100D03*
X121202200Y-115578700D03*
%TO.N,PC0*%
X74133400Y-131003000D03*
%TO.N,PC1*%
X121024500Y-107566300D03*
%TO.N,PB1*%
X90546800Y-150845600D03*
X120393800Y-150947600D03*
%TO.N,PB0*%
X86331300Y-157218500D03*
%TO.N,PC4*%
X77721100Y-128088900D03*
%TO.N,PC5*%
X121804000Y-116361700D03*
X86908700Y-112989200D03*
%TO.N,Net-(J7-Pin_8)*%
X119364200Y-118284800D03*
X68828400Y-114762600D03*
%TO.N,Net-(J6-Pin_1)*%
X85707900Y-114452900D03*
%TO.N,Net-(J6-Pin_6)*%
X59456700Y-151543300D03*
%TO.N,Net-(J6-Pin_7)*%
X89018800Y-92663200D03*
%TO.N,Net-(J6-Pin_5)*%
X64574600Y-149934400D03*
X87541400Y-154945200D03*
%TO.N,Net-(J6-Pin_4)*%
X60533500Y-145679700D03*
%TO.N,Net-(J6-Pin_3)*%
X60184800Y-130591400D03*
%TO.N,Net-(J6-Pin_2)*%
X84571900Y-114529500D03*
X59069500Y-113429900D03*
%TO.N,Net-(J6-Pin_8)*%
X59780300Y-156752700D03*
%TO.N,Net-(J4-Pin_1)*%
X88774700Y-88634800D03*
%TO.N,PD6*%
X86399700Y-145775800D03*
X89984900Y-151512500D03*
X142177200Y-147065400D03*
%TO.N,PD4*%
X84596300Y-139186700D03*
%TO.N,PD7*%
X109233500Y-144491700D03*
X113462600Y-144446200D03*
X116052600Y-125285700D03*
%TO.N,PD1*%
X117364400Y-147060000D03*
X86413500Y-142613400D03*
%TO.N,PD5*%
X135683500Y-147728500D03*
%TO.N,PD2*%
X136764500Y-136183500D03*
X82025800Y-136309100D03*
%TO.N,PD3*%
X112191600Y-155312100D03*
%TO.N,PD0*%
X118092700Y-162289400D03*
%TO.N,Net-(D8-A)*%
X146148000Y-76199400D03*
%TO.N,Net-(D7-A)*%
X126886500Y-131020700D03*
%TO.N,Net-(D6-A)*%
X74115700Y-133952500D03*
%TO.N,Net-(D5-A)*%
X144478900Y-69452900D03*
%TO.N,Net-(D4-A)*%
X144294900Y-74533500D03*
%TO.N,Net-(D3-A)*%
X119046400Y-142008900D03*
%TO.N,Net-(D2-A)*%
X74115700Y-151073700D03*
%TO.N,Net-(D1-A)*%
X103433700Y-122225300D03*
%TO.N,Net-(U2-AREF)*%
X124270900Y-141420100D03*
%TO.N,Net-(U2-XTAL1{slash}PB6)*%
X109874300Y-118468400D03*
%TO.N,+5V*%
X120000000Y-118821000D03*
%TO.N,GND*%
X59851400Y-131796200D03*
X150500000Y-142747900D03*
X55925100Y-107566300D03*
%TO.N,Net-(BZ1--)*%
X106365500Y-98112500D03*
%TO.N,V_Motor*%
X118181300Y-117087000D03*
%TD*%
D27*
%TO.N,Net-(D6-A)*%
X74115700Y-133952500D02*
X71040000Y-130876800D01*
X71040000Y-130876800D02*
X71040000Y-62500000D01*
%TO.N,+5V*%
X119960000Y-95751700D02*
X120000000Y-95791700D01*
X119960000Y-93450000D02*
X119960000Y-95751700D01*
%TO.N,V_Motor*%
X115084200Y-93450000D02*
X116134200Y-94500000D01*
X114880000Y-93450000D02*
X115084200Y-93450000D01*
%TO.N,Net-(J10-Pin_2)*%
X64774600Y-139987600D02*
X63495800Y-138708800D01*
X64774600Y-142224600D02*
X64774600Y-139987600D01*
X66090000Y-143540000D02*
X64774600Y-142224600D01*
%TO.N,Net-(J8-Pin_1)*%
X55191000Y-146829000D02*
X53040000Y-148980000D01*
X55191000Y-139104900D02*
X55191000Y-146829000D01*
X56377600Y-137918300D02*
X55191000Y-139104900D01*
X57191000Y-137918300D02*
X56377600Y-137918300D01*
X58110900Y-136998400D02*
X57191000Y-137918300D01*
X58110900Y-133514700D02*
X58110900Y-136998400D01*
X57197900Y-132601700D02*
X58110900Y-133514700D01*
X56910000Y-132601700D02*
X57197900Y-132601700D01*
X56910000Y-131450000D02*
X56910000Y-132601700D01*
%TO.N,Net-(J8-Pin_5)*%
X55758300Y-145137100D02*
X57096100Y-146474900D01*
X55758300Y-142761700D02*
X55758300Y-145137100D01*
X56910000Y-141610000D02*
X55758300Y-142761700D01*
%TO.N,Net-(J8-Pin_3)*%
X54479800Y-145000200D02*
X53040000Y-146440000D01*
X54479800Y-138960200D02*
X54479800Y-145000200D01*
X56910000Y-136530000D02*
X54479800Y-138960200D01*
%TO.N,12v*%
X55640000Y-81885000D02*
X55640000Y-83936700D01*
X62424700Y-112875300D02*
X62424700Y-133930000D01*
X66120000Y-109180000D02*
X62424700Y-112875300D01*
X51600200Y-132639800D02*
X53040000Y-131200000D01*
X51600200Y-142799800D02*
X51600200Y-132639800D01*
X45420000Y-148980000D02*
X51600200Y-142799800D01*
X64312100Y-107372100D02*
X66120000Y-109180000D01*
X64312100Y-92608800D02*
X64312100Y-107372100D01*
X55640000Y-83936700D02*
X64312100Y-92608800D01*
%TO.N,PC2*%
X81312600Y-104560900D02*
X81312600Y-108791100D01*
X78430000Y-101678300D02*
X81312600Y-104560900D01*
X77790900Y-101678300D02*
X78430000Y-101678300D01*
X76848300Y-100735700D02*
X77790900Y-101678300D01*
X76848300Y-98801700D02*
X76848300Y-100735700D01*
X77950000Y-97700000D02*
X76848300Y-98801700D01*
X123167700Y-131872300D02*
X122040000Y-133000000D01*
X123167700Y-116481000D02*
X123167700Y-131872300D01*
X122231300Y-115544600D02*
X123167700Y-116481000D01*
%TO.N,PC3*%
X81907600Y-109854100D02*
X81906000Y-109854100D01*
X81906000Y-109854100D02*
X81907600Y-109854100D01*
X81914300Y-104204300D02*
X77950000Y-100240000D01*
X81914300Y-109847400D02*
X81914300Y-104204300D01*
X81907600Y-109854100D02*
X81914300Y-109847400D01*
X122040000Y-129787200D02*
X122040000Y-130460000D01*
X120872800Y-128620000D02*
X122040000Y-129787200D01*
X120872800Y-124016100D02*
X120872800Y-128620000D01*
X121202200Y-123686700D02*
X120872800Y-124016100D01*
X121202200Y-115578700D02*
X121202200Y-123686700D01*
X121202200Y-115578700D02*
X121202200Y-115721700D01*
X121202200Y-115721700D02*
X121202200Y-115578700D01*
%TO.N,PC0*%
X74133400Y-96436600D02*
X77950000Y-92620000D01*
X74133400Y-131003000D02*
X74133400Y-96436600D01*
%TO.N,PC1*%
X120872800Y-134372800D02*
X122040000Y-135540000D01*
X120872800Y-129388200D02*
X120872800Y-134372800D01*
X120706500Y-129221900D02*
X120872800Y-129388200D01*
X120706500Y-129221900D02*
X120872800Y-129388200D01*
X120471100Y-128986500D02*
X120706500Y-129221900D01*
X120471100Y-123716300D02*
X120471100Y-128986500D01*
X120700500Y-123486900D02*
X120471100Y-123716300D01*
X120700500Y-116678600D02*
X120700500Y-123486900D01*
X120600500Y-116578600D02*
X120700500Y-116678600D01*
X120600500Y-107990300D02*
X120600500Y-116578600D01*
X121024500Y-107566300D02*
X120600500Y-107990300D01*
%TO.N,PB1*%
X90546800Y-150668100D02*
X90546800Y-150845600D01*
X90066600Y-150187900D02*
X90546800Y-150668100D01*
X90066600Y-148215500D02*
X90066600Y-150187900D01*
X89001100Y-147150000D02*
X90066600Y-148215500D01*
X88214100Y-147150000D02*
X89001100Y-147150000D01*
X87029000Y-145964900D02*
X88214100Y-147150000D01*
X87029000Y-119479000D02*
X87029000Y-145964900D01*
X77950000Y-110400000D02*
X87029000Y-119479000D01*
X120393800Y-156753800D02*
X122040000Y-158400000D01*
X120393800Y-150947600D02*
X120393800Y-156753800D01*
%TO.N,PB0*%
X86331300Y-157901400D02*
X86331300Y-157218500D01*
X84472400Y-159760300D02*
X86331300Y-157901400D01*
X83491100Y-159760300D02*
X84472400Y-159760300D01*
X76398400Y-152667600D02*
X83491100Y-159760300D01*
X76398400Y-109411600D02*
X76398400Y-152667600D01*
X77950000Y-107860000D02*
X76398400Y-109411600D01*
%TO.N,PC4*%
X76819500Y-103910500D02*
X77950000Y-102780000D01*
X76819500Y-105754500D02*
X76819500Y-103910500D01*
X77823300Y-106758300D02*
X76819500Y-105754500D01*
X78414300Y-106758300D02*
X77823300Y-106758300D01*
X79113700Y-107457700D02*
X78414300Y-106758300D01*
X79113700Y-108262900D02*
X79113700Y-107457700D01*
X78078300Y-109298300D02*
X79113700Y-108262900D01*
X77493700Y-109298300D02*
X78078300Y-109298300D01*
X76830200Y-109961800D02*
X77493700Y-109298300D01*
X76830200Y-127198000D02*
X76830200Y-109961800D01*
X77721100Y-128088900D02*
X76830200Y-127198000D01*
%TO.N,PC5*%
X121804000Y-125144000D02*
X122040000Y-125380000D01*
X121804000Y-116361700D02*
X121804000Y-125144000D01*
X121804000Y-116361700D02*
X121804000Y-116469200D01*
X121804000Y-116469200D02*
X121804000Y-116361700D01*
X86908700Y-110172000D02*
X86908700Y-112989200D01*
X86017400Y-109280700D02*
X86908700Y-110172000D01*
X83410800Y-109280700D02*
X86017400Y-109280700D01*
X82224100Y-110467400D02*
X83410800Y-109280700D01*
X81657000Y-110467400D02*
X82224100Y-110467400D01*
X81080000Y-109890400D02*
X81657000Y-110467400D01*
X81080000Y-109409200D02*
X81080000Y-109890400D01*
X81079900Y-109409200D02*
X81080000Y-109409200D01*
X80710900Y-109040200D02*
X81079900Y-109409200D01*
X80710900Y-108080900D02*
X80710900Y-109040200D01*
X77950000Y-105320000D02*
X80710900Y-108080900D01*
X121804000Y-116361700D02*
X121802400Y-116361700D01*
X121802400Y-116361700D02*
X121804000Y-116361700D01*
%TO.N,Net-(J7-Pin_8)*%
X119364200Y-116424200D02*
X119364200Y-118284800D01*
X117680000Y-114740000D02*
X119364200Y-116424200D01*
X68828400Y-109348400D02*
X66120000Y-106640000D01*
X68828400Y-114762600D02*
X68828400Y-109348400D01*
%TO.N,Net-(J6-Pin_1)*%
X88590000Y-117335000D02*
X88590000Y-143340000D01*
X85707900Y-114452900D02*
X88590000Y-117335000D01*
%TO.N,Net-(J6-Pin_6)*%
X57328800Y-95111200D02*
X58500000Y-93940000D01*
X57328800Y-129158800D02*
X57328800Y-95111200D01*
X59246600Y-131076600D02*
X57328800Y-129158800D01*
X59246600Y-151333200D02*
X59246600Y-131076600D01*
X59456700Y-151543300D02*
X59246600Y-151333200D01*
%TO.N,Net-(J6-Pin_7)*%
X90752900Y-150106000D02*
X90588100Y-149941200D01*
X90752900Y-150106000D02*
X90588100Y-149941200D01*
X90588100Y-94232500D02*
X89018800Y-92663200D01*
X90588100Y-149941200D02*
X90588100Y-94232500D01*
X91148500Y-150501600D02*
X90752900Y-150106000D01*
X91148500Y-156021500D02*
X91148500Y-150501600D01*
X88590000Y-158580000D02*
X91148500Y-156021500D01*
%TO.N,Net-(J6-Pin_5)*%
X61188200Y-99168200D02*
X58500000Y-96480000D01*
X61188200Y-131006900D02*
X61188200Y-99168200D01*
X60853200Y-131341900D02*
X61188200Y-131006900D01*
X60853200Y-131379100D02*
X60853200Y-131341900D01*
X60854800Y-131380700D02*
X60853200Y-131379100D01*
X60854800Y-136918600D02*
X60854800Y-131380700D01*
X64172900Y-140236700D02*
X60854800Y-136918600D01*
X64172900Y-149532700D02*
X64172900Y-140236700D01*
X64574600Y-149934400D02*
X64172900Y-149532700D01*
X87541400Y-154548600D02*
X87541400Y-154945200D01*
X88590000Y-153500000D02*
X87541400Y-154548600D01*
X87541400Y-154945200D02*
X87541400Y-154945300D01*
X87541400Y-154945300D02*
X87541400Y-154945200D01*
%TO.N,Net-(J6-Pin_4)*%
X60078000Y-114974800D02*
X60242800Y-115139600D01*
X60078000Y-114974800D02*
X60242800Y-115139600D01*
X60786500Y-115683300D02*
X60242800Y-115139600D01*
X60786500Y-130840600D02*
X60786500Y-115683300D01*
X60451500Y-131175600D02*
X60786500Y-130840600D01*
X60451500Y-131545400D02*
X60451500Y-131175600D01*
X60453100Y-131547000D02*
X60451500Y-131545400D01*
X60453100Y-132047000D02*
X60453100Y-131547000D01*
X60301900Y-132198200D02*
X60453100Y-132047000D01*
X60301900Y-145448100D02*
X60301900Y-132198200D01*
X60533500Y-145679700D02*
X60301900Y-145448100D01*
X60442400Y-105407200D02*
X60207000Y-105171800D01*
X60442400Y-114610400D02*
X60442400Y-105407200D01*
X60078000Y-114974800D02*
X60442400Y-114610400D01*
X60078000Y-100598000D02*
X58500000Y-99020000D01*
X60078000Y-105042800D02*
X60078000Y-100598000D01*
X60207000Y-105171800D02*
X60078000Y-105042800D01*
X60207000Y-105171800D02*
X60078000Y-105042800D01*
%TO.N,Net-(J6-Pin_3)*%
X60040700Y-105573500D02*
X59805300Y-105338100D01*
X60040700Y-110576200D02*
X60040700Y-105573500D01*
X59671200Y-110945700D02*
X60040700Y-110576200D01*
X59671200Y-130077800D02*
X59671200Y-110945700D01*
X60184800Y-130591400D02*
X59671200Y-130077800D01*
X59639000Y-102699000D02*
X58500000Y-101560000D01*
X59639000Y-105171800D02*
X59639000Y-102699000D01*
X59805300Y-105338100D02*
X59639000Y-105171800D01*
X59805300Y-105338100D02*
X59639000Y-105171800D01*
%TO.N,Net-(J6-Pin_2)*%
X87438300Y-144728300D02*
X88590000Y-145880000D01*
X87438300Y-117395900D02*
X87438300Y-144728300D01*
X84571900Y-114529500D02*
X87438300Y-117395900D01*
X58500000Y-104801000D02*
X58500000Y-104100000D01*
X59639000Y-105940000D02*
X58500000Y-104801000D01*
X59639000Y-110310100D02*
X59639000Y-105940000D01*
X59069500Y-110879600D02*
X59639000Y-110310100D01*
X59069500Y-113429900D02*
X59069500Y-110879600D01*
%TO.N,Net-(J6-Pin_8)*%
X58751400Y-155723800D02*
X59780300Y-156752700D01*
X58751400Y-131158100D02*
X58751400Y-155723800D01*
X56925200Y-129331900D02*
X58751400Y-131158100D01*
X56925200Y-90434800D02*
X56925200Y-129331900D01*
X58500000Y-88860000D02*
X56925200Y-90434800D01*
%TO.N,Net-(J4-Pin_1)*%
X88774700Y-89415300D02*
X88774700Y-88634800D01*
X85570000Y-92620000D02*
X88774700Y-89415300D01*
%TO.N,PD6*%
X142177200Y-128677200D02*
X141000000Y-127500000D01*
X142177200Y-147065400D02*
X142177200Y-128677200D01*
X86399700Y-145775800D02*
X86399700Y-145923200D01*
X86399700Y-145923200D02*
X86399700Y-145775800D01*
X89945100Y-151472700D02*
X89984900Y-151512500D01*
X89945100Y-150668100D02*
X89945100Y-151472700D01*
X88848700Y-149571700D02*
X89945100Y-150668100D01*
X88089800Y-149571700D02*
X88848700Y-149571700D01*
X86399700Y-147881600D02*
X88089800Y-149571700D01*
X86399700Y-145775800D02*
X86399700Y-147881600D01*
X89984900Y-151512500D02*
X89945100Y-151512500D01*
X89945100Y-151512500D02*
X89984900Y-151512500D01*
%TO.N,PD4*%
X81364000Y-148324000D02*
X84000000Y-150960000D01*
X81364000Y-136042100D02*
X81364000Y-148324000D01*
X81737700Y-135668400D02*
X81364000Y-136042100D01*
X82236100Y-135668400D02*
X81737700Y-135668400D01*
X84596300Y-138028600D02*
X82236100Y-135668400D01*
X84596300Y-139186700D02*
X84596300Y-138028600D01*
X84596300Y-139186700D02*
X84596300Y-138028600D01*
X84596300Y-138028600D02*
X84596300Y-139186700D01*
%TO.N,PD7*%
X116052600Y-125633600D02*
X116052600Y-125285700D01*
X114867900Y-126818300D02*
X116052600Y-125633600D01*
X113946100Y-126818300D02*
X114867900Y-126818300D01*
X112818700Y-127945700D02*
X113946100Y-126818300D01*
X112818700Y-143532800D02*
X112818700Y-127945700D01*
X113462600Y-144176700D02*
X112818700Y-143532800D01*
X113462600Y-144446200D02*
X113462600Y-144176700D01*
X109233500Y-153235100D02*
X109233500Y-144491700D01*
X111934400Y-155936000D02*
X109233500Y-153235100D01*
X114344000Y-155936000D02*
X111934400Y-155936000D01*
X114420000Y-155860000D02*
X114344000Y-155936000D01*
%TO.N,PD1*%
X117364400Y-133404400D02*
X114420000Y-130460000D01*
X117364400Y-147060000D02*
X117364400Y-133404400D01*
X85605700Y-156974300D02*
X84000000Y-158580000D01*
X85605700Y-143421200D02*
X85605700Y-156974300D01*
X86413500Y-142613400D02*
X85605700Y-143421200D01*
%TO.N,PD5*%
X135683500Y-136411300D02*
X135683500Y-147728500D01*
X140544800Y-131550000D02*
X135683500Y-136411300D01*
X141000000Y-131550000D02*
X140544800Y-131550000D01*
%TO.N,PD2*%
X136764500Y-139464500D02*
X136764500Y-136183500D01*
X141000000Y-143700000D02*
X136764500Y-139464500D01*
X85151700Y-154888300D02*
X84000000Y-156040000D01*
X85151700Y-140742200D02*
X85151700Y-154888300D01*
X82025800Y-137616300D02*
X85151700Y-140742200D01*
X82025800Y-136309100D02*
X82025800Y-137616300D01*
X136764500Y-136183500D02*
X136763300Y-136182300D01*
X136763300Y-136182300D02*
X136764500Y-136183500D01*
%TO.N,PD3*%
X113055300Y-154448400D02*
X112191600Y-155312100D01*
X114920800Y-154448400D02*
X113055300Y-154448400D01*
X115566300Y-153802900D02*
X114920800Y-154448400D01*
X115566300Y-136686300D02*
X115566300Y-153802900D01*
X114420000Y-135540000D02*
X115566300Y-136686300D01*
%TO.N,PD0*%
X118092700Y-131592700D02*
X114420000Y-127920000D01*
X118092700Y-162289400D02*
X118092700Y-131592700D01*
%TO.N,Net-(J2-Pin_5)*%
X135960000Y-114360000D02*
X135960000Y-64560000D01*
X141000000Y-119400000D02*
X135960000Y-114360000D01*
%TO.N,Net-(J2-Pin_3)*%
X134206600Y-63773400D02*
X135960000Y-62020000D01*
X134206600Y-136073400D02*
X134206600Y-63773400D01*
X122040000Y-148240000D02*
X134206600Y-136073400D01*
%TO.N,Net-(J2-Pin_1)*%
X135960000Y-59480000D02*
X135960000Y-60631700D01*
X135672100Y-60631700D02*
X135960000Y-60631700D01*
X133804900Y-62498900D02*
X135672100Y-60631700D01*
X133804900Y-135530800D02*
X133804900Y-62498900D01*
X122534000Y-146801700D02*
X133804900Y-135530800D01*
X121918100Y-146801700D02*
X122534000Y-146801700D01*
X120917800Y-147802000D02*
X121918100Y-146801700D01*
X120917800Y-149657800D02*
X120917800Y-147802000D01*
X122040000Y-150780000D02*
X120917800Y-149657800D01*
%TO.N,Net-(J2-Pin_4)*%
X134808300Y-140551700D02*
X122040000Y-153320000D01*
X134808300Y-64023900D02*
X134808300Y-140551700D01*
X135423900Y-63408300D02*
X134808300Y-64023900D01*
X137111700Y-63408300D02*
X135423900Y-63408300D01*
X138500000Y-62020000D02*
X137111700Y-63408300D01*
%TO.N,Net-(D8-A)*%
X147044000Y-125924000D02*
X148620000Y-127500000D01*
X147044000Y-77095400D02*
X147044000Y-125924000D01*
X146148000Y-76199400D02*
X147044000Y-77095400D01*
%TO.N,Net-(D7-A)*%
X126886500Y-90669200D02*
X126886500Y-131020700D01*
X120640000Y-84422700D02*
X126886500Y-90669200D01*
X120640000Y-60920000D02*
X120640000Y-84422700D01*
%TO.N,Net-(D5-A)*%
X145843000Y-136873000D02*
X145843000Y-118098100D01*
X148620000Y-139650000D02*
X145843000Y-136873000D01*
X145843000Y-118098100D02*
X145676700Y-117931800D01*
X145843000Y-118098100D02*
X145676700Y-117931800D01*
X145546300Y-117801400D02*
X145676700Y-117931800D01*
X145546300Y-70520300D02*
X145546300Y-117801400D01*
X144478900Y-69452900D02*
X145546300Y-70520300D01*
%TO.N,Net-(D4-A)*%
X144294900Y-139374900D02*
X144294900Y-74533500D01*
X148620000Y-143700000D02*
X144294900Y-139374900D01*
%TO.N,Net-(D3-A)*%
X119046400Y-118817800D02*
X119046400Y-142008900D01*
X115521200Y-115292600D02*
X119046400Y-118817800D01*
X115521200Y-99311600D02*
X115521200Y-115292600D01*
X105680000Y-89470400D02*
X115521200Y-99311600D01*
X105680000Y-60920000D02*
X105680000Y-89470400D01*
%TO.N,Net-(D2-A)*%
X67672600Y-144630600D02*
X74115700Y-151073700D01*
X67672500Y-144630600D02*
X67672600Y-144630600D01*
X67672500Y-109117900D02*
X67672500Y-144630600D01*
X66296300Y-107741700D02*
X67672500Y-109117900D01*
X65653500Y-107741700D02*
X66296300Y-107741700D01*
X64880200Y-106968400D02*
X65653500Y-107741700D01*
X64880200Y-70280200D02*
X64880200Y-106968400D01*
X57100000Y-62500000D02*
X64880200Y-70280200D01*
%TO.N,Net-(D1-A)*%
X103433700Y-66153700D02*
X98200000Y-60920000D01*
X103433700Y-122225300D02*
X103433700Y-66153700D01*
%TO.N,Net-(U2-AREF)*%
X122531000Y-143160000D02*
X124270900Y-141420100D01*
X122040000Y-143160000D02*
X122531000Y-143160000D01*
%TO.N,Net-(U2-XTAL2{slash}PB7)*%
X101910000Y-135730000D02*
X101910000Y-129800000D01*
X114420000Y-148240000D02*
X101910000Y-135730000D01*
%TO.N,Net-(U2-XTAL1{slash}PB6)*%
X113865600Y-145700000D02*
X114420000Y-145700000D01*
X112860900Y-144695300D02*
X113865600Y-145700000D01*
X112860900Y-144197100D02*
X112860900Y-144695300D01*
X112887900Y-144170100D02*
X112860900Y-144197100D01*
X112887900Y-144170000D02*
X112887900Y-144170100D01*
X106790000Y-138072100D02*
X112887900Y-144170000D01*
X106790000Y-129800000D02*
X106790000Y-138072100D01*
X109874300Y-126715700D02*
X106790000Y-129800000D01*
X109874300Y-118468400D02*
X109874300Y-126715700D01*
%TO.N,+5V*%
X149727400Y-120507400D02*
X148620000Y-119400000D01*
X149727400Y-126357400D02*
X149727400Y-120507400D01*
X151770000Y-128400000D02*
X149727400Y-126357400D01*
X120000000Y-143660000D02*
X122040000Y-145700000D01*
X120000000Y-118821000D02*
X120000000Y-143660000D01*
X137347000Y-58327000D02*
X138500000Y-59480000D01*
X134981200Y-58327000D02*
X137347000Y-58327000D01*
X133031000Y-60277200D02*
X134981200Y-58327000D01*
X133031000Y-82247600D02*
X133031000Y-60277200D01*
X128702000Y-86576600D02*
X133031000Y-82247600D01*
X127456400Y-86576600D02*
X128702000Y-86576600D01*
X126289800Y-85410000D02*
X127456400Y-86576600D01*
X120000000Y-118821000D02*
X120000000Y-95791700D01*
%TO.N,GND*%
X154270000Y-129050000D02*
X154270000Y-128400000D01*
X151770000Y-131550000D02*
X154270000Y-129050000D01*
X152876800Y-125250000D02*
X151770000Y-125250000D01*
X152876800Y-127006800D02*
X152876800Y-125250000D01*
X154270000Y-128400000D02*
X152876800Y-127006800D01*
X152876800Y-123493200D02*
X154270000Y-122100000D01*
X152876800Y-125250000D02*
X152876800Y-123493200D01*
X53040000Y-138820000D02*
X53040000Y-141360000D01*
X53040000Y-141978800D02*
X53040000Y-141360000D01*
X51888300Y-143130500D02*
X53040000Y-141978800D01*
X51888300Y-152578300D02*
X51888300Y-143130500D01*
X52360000Y-153050000D02*
X51888300Y-152578300D01*
X45420000Y-138820000D02*
X45420000Y-141360000D01*
X44280900Y-151470900D02*
X45860000Y-153050000D01*
X44280900Y-142499100D02*
X44280900Y-151470900D01*
X45420000Y-141360000D02*
X44280900Y-142499100D01*
X128289800Y-66859800D02*
X125140000Y-63710000D01*
X128289800Y-85410000D02*
X128289800Y-66859800D01*
X154270000Y-118950000D02*
X154270000Y-122100000D01*
X117420000Y-62801700D02*
X118100000Y-62121700D01*
X117420000Y-94450000D02*
X117420000Y-62801700D01*
X118100000Y-60920000D02*
X118100000Y-62121700D01*
X150500000Y-163000000D02*
X150500000Y-142747900D01*
X150500000Y-132820000D02*
X151770000Y-131550000D01*
X150500000Y-142747900D02*
X150500000Y-132820000D01*
X60103800Y-160013800D02*
X61190000Y-161100000D01*
X60103800Y-157664400D02*
X60103800Y-160013800D01*
X50215000Y-68046700D02*
X54560000Y-63701700D01*
X50215000Y-81885000D02*
X50215000Y-68046700D01*
X49640000Y-81885000D02*
X50215000Y-81885000D01*
X54560000Y-62500000D02*
X54560000Y-63701700D01*
X50215000Y-101856200D02*
X55925100Y-107566300D01*
X50215000Y-81885000D02*
X50215000Y-101856200D01*
X56974400Y-157664400D02*
X60103800Y-157664400D01*
X52360000Y-153050000D02*
X56974400Y-157664400D01*
X59851400Y-148758700D02*
X59851400Y-131796200D01*
X60382000Y-149289300D02*
X59851400Y-148758700D01*
X60382000Y-157386200D02*
X60382000Y-149289300D01*
X60103800Y-157664400D02*
X60382000Y-157386200D01*
X58467800Y-109212200D02*
X58500000Y-109180000D01*
X58467800Y-129725200D02*
X58467800Y-109212200D01*
X59849800Y-131107200D02*
X58467800Y-129725200D01*
X59849800Y-131794600D02*
X59849800Y-131107200D01*
X59851400Y-131796200D02*
X59849800Y-131794600D01*
%TO.N,Net-(BZ1--)*%
X108450000Y-100197000D02*
X106365500Y-98112500D01*
X108450000Y-119670000D02*
X108450000Y-100197000D01*
%TO.N,V_Motor*%
X152466900Y-78033100D02*
X154000000Y-76500000D01*
X152466900Y-117402700D02*
X152466900Y-78033100D01*
X154353700Y-117402700D02*
X152466900Y-117402700D01*
X156500000Y-119549000D02*
X154353700Y-117402700D01*
X156500000Y-163000000D02*
X156500000Y-119549000D01*
X151770000Y-118099600D02*
X151770000Y-118950000D01*
X152466900Y-117402700D02*
X151770000Y-118099600D01*
X116134200Y-114926800D02*
X116134200Y-94500000D01*
X118181300Y-116973900D02*
X116134200Y-114926800D01*
X143459700Y-60460000D02*
X143169800Y-60460000D01*
X154000000Y-71000300D02*
X143459700Y-60460000D01*
X154000000Y-76500000D02*
X154000000Y-71000300D01*
X118181300Y-116973900D02*
X118181300Y-117087000D01*
%TD*%
M02*
